<svg width="606" height="483" viewBox="0 0 606 483" fill="none" xmlns="http://www.w3.org/2000/svg">
<path d="M289.209 214.486C287.411 212.344 285.837 210.024 284.511 207.562C283.1 205.071 282.138 202.35 281.671 199.525C281.647 199.356 281.682 199.183 281.769 199.036L281.783 199.014C283.017 196.947 284.401 194.973 285.923 193.108C287.435 191.229 289.114 189.492 290.939 187.916C292.764 186.303 294.838 184.996 297.082 184.047C299.32 183.063 301.823 182.851 304.194 183.447C301.866 183.313 299.548 183.845 297.51 184.98C296.502 185.53 295.534 186.151 294.613 186.838C293.696 187.535 292.83 188.299 291.98 189.08C290.303 190.684 288.736 192.399 287.29 194.214C285.831 196.022 284.471 197.908 283.216 199.863L283.327 199.352C283.686 202.018 284.433 204.617 285.544 207.067C286.069 208.332 286.667 209.57 287.274 210.809C287.896 212.04 288.528 213.273 289.209 214.486Z" fill="black"/>
<path d="M349.489 166.231L347.54 179.361L347.472 179.352C346.766 180.85 346.207 182.414 345.803 184.021C345.572 184.802 345.437 185.603 345.244 186.394L344.829 188.787C344.594 190.392 344.446 192.009 344.385 193.63C344.3 195.283 344.377 196.941 344.617 198.579L344.684 198.589L342.176 215.53L322.205 212.568C323.257 211.324 325.08 209.896 325.09 207.754C325.09 207.754 331.043 203.143 328.804 198.608C328.804 198.608 342.658 197.267 343.382 192.385C344.105 187.504 326.807 191.999 326.807 191.999C326.807 191.999 315.278 195.955 310.454 194.305C309.171 193.871 307.879 193.726 307.83 191.903L308.149 189.723L309.519 180.48L312.452 160.732L349.489 166.231Z" fill="black"/>
<path d="M356.425 180.683L355.962 183.809L355.885 183.799C355.29 184.636 354.828 185.561 354.515 186.539C354.322 187.002 354.235 187.484 354.091 187.947C353.985 188.43 353.907 188.903 353.821 189.385C353.679 190.349 353.624 191.324 353.657 192.299C353.678 193.326 353.853 194.343 354.178 195.318L354.245 195.328V195.337L353.57 199.911L344.761 198.598L346.257 188.999L347.617 179.38L347.54 179.361L356.425 180.683Z" fill="black"/>
<path d="M361.307 189.935C361.062 192.098 360.379 194.189 359.3 196.08L354.322 195.347L354.245 195.338V195.328L355.962 183.809L356.03 183.818L361.008 184.561C361.414 186.322 361.515 188.14 361.307 189.935Z" fill="black"/>
<path d="M340.049 160.327L331.334 159.034L330.68 163.439L339.396 164.732L340.049 160.327Z" fill="black"/>
<path d="M352.061 169.498L347.703 168.852L347.049 173.257L351.407 173.903L352.061 169.498Z" fill="black"/>
<path d="M328.492 143.9C328.872 144.885 329.162 145.903 329.36 146.94C329.571 147.958 329.728 148.986 329.828 150.02C329.935 151.054 329.985 152.093 329.978 153.132C329.99 154.188 329.905 155.243 329.725 156.284C329.343 155.299 329.052 154.282 328.855 153.244C328.643 152.227 328.488 151.198 328.389 150.164C328.283 149.13 328.234 148.091 328.24 147.052C328.229 145.996 328.314 144.941 328.492 143.9Z" fill="black"/>
<path d="M336.633 142.115C336.73 143.38 336.732 144.65 336.638 145.915C336.569 147.17 336.415 148.414 336.246 149.655C336.049 150.892 335.835 152.126 335.537 153.348C335.26 154.586 334.889 155.801 334.427 156.982C334.328 155.718 334.326 154.447 334.42 153.183C334.49 151.927 334.644 150.683 334.815 149.443C335.013 148.206 335.227 146.971 335.525 145.749C335.803 144.512 336.173 143.297 336.633 142.115Z" fill="black"/>
<path d="M339.755 156.161C339.847 155.241 340.032 154.333 340.309 153.45C340.563 152.581 340.871 151.729 341.231 150.898C341.585 150.065 341.991 149.255 342.447 148.472C342.897 147.664 343.43 146.905 344.036 146.207C343.946 147.127 343.762 148.036 343.485 148.918C343.23 149.787 342.922 150.639 342.56 151.47C342.205 152.302 341.798 153.112 341.342 153.895C340.892 154.703 340.36 155.462 339.755 156.161Z" fill="black"/>
<path d="M379.5 184.862C378.48 185.222 377.431 185.492 376.364 185.668C375.316 185.859 374.259 185.995 373.197 186.074C372.135 186.16 371.07 186.189 370.005 186.162C368.924 186.152 367.845 186.045 366.782 185.844C367.801 185.482 368.851 185.212 369.918 185.036C370.966 184.845 372.023 184.71 373.085 184.632C374.147 184.547 375.212 184.519 376.277 184.546C377.358 184.557 378.437 184.662 379.5 184.862Z" fill="black"/>
<path d="M381.319 192.822C380.019 192.902 378.714 192.886 377.416 192.775C376.127 192.688 374.85 192.518 373.576 192.331C372.306 192.118 371.039 191.886 369.786 191.572C368.516 191.278 367.27 190.89 366.058 190.412C367.359 190.33 368.663 190.345 369.962 190.456C371.251 190.544 372.528 190.714 373.802 190.903C375.071 191.118 376.338 191.349 377.592 191.664C378.861 191.958 380.107 192.345 381.319 192.822Z" fill="black"/>
<path d="M366.893 195.615C367.834 195.712 368.763 195.902 369.666 196.184C370.557 196.443 371.43 196.757 372.283 197.122C373.138 197.481 373.97 197.893 374.774 198.354C375.604 198.809 376.386 199.347 377.107 199.96C376.165 199.865 375.236 199.675 374.332 199.393C373.442 199.134 372.568 198.82 371.717 198.453C370.862 198.092 370.031 197.68 369.226 197.219C368.397 196.764 367.615 196.227 366.893 195.615Z" fill="black"/>
<path d="M284.41 206.38C285.71 205.558 286.863 204.522 287.82 203.317C288.286 202.72 288.698 202.083 289.052 201.414C289.4 200.757 289.685 200.045 290.01 199.323C291.28 196.463 292.515 193.573 294.05 190.783C294.813 189.347 295.724 187.994 296.768 186.746C297.845 185.504 299.076 184.404 300.433 183.475C301.766 182.54 303.187 181.74 304.678 181.086C306.166 180.411 307.718 179.889 309.312 179.528L309.323 179.525C309.573 179.47 309.835 179.517 310.05 179.655C310.266 179.793 310.418 180.01 310.473 180.26C310.499 180.38 310.502 180.503 310.483 180.623C309.98 183.697 309.381 186.757 308.835 189.824L308.827 189.865L308.819 189.899C308.528 190.697 308.416 191.549 308.49 192.395C308.517 192.558 308.579 192.713 308.67 192.85C308.762 192.988 308.881 193.104 309.021 193.192C309.394 193.41 309.793 193.582 310.208 193.704C310.686 193.887 311.078 193.977 311.515 194.107C311.967 194.155 312.409 194.26 312.874 194.265C313.805 194.32 314.739 194.3 315.667 194.204C319.423 193.765 323.116 192.894 326.672 191.607L326.696 191.599L326.703 191.598C329.503 190.817 332.344 190.193 335.213 189.729C336.674 189.486 338.151 189.357 339.632 189.341C340.421 189.332 341.207 189.418 341.976 189.595C342.421 189.704 342.843 189.89 343.225 190.143C343.705 190.45 344.055 190.922 344.21 191.47C344.313 191.957 344.31 192.46 344.199 192.945C344.089 193.43 343.875 193.886 343.571 194.28C343.071 194.956 342.452 195.536 341.746 195.993C340.453 196.818 339.054 197.464 337.587 197.914C334.762 198.804 331.858 199.423 328.916 199.763L329.845 198.094C330.324 199.09 330.539 200.192 330.472 201.295C330.371 202.337 330.065 203.35 329.572 204.274C329.117 205.142 328.56 205.954 327.913 206.691C327.285 207.429 326.59 208.108 325.839 208.721L326.313 207.76C326.289 208.844 325.942 209.897 325.315 210.782C324.785 211.521 324.193 212.213 323.544 212.85C323.288 213.111 323.047 213.387 322.822 213.676C322.756 213.764 322.7 213.859 322.656 213.96C322.645 213.983 322.638 214.007 322.634 214.031L322.597 214.3C322.54 215.242 322.344 216.17 322.016 217.055C321.219 218.78 319.949 220.245 318.353 221.277C317.985 221.529 317.613 221.772 317.238 222.007C316.833 222.231 316.531 222.435 316.042 222.675C315.577 222.872 315.089 223.009 314.59 223.085C314.144 223.16 313.707 223.215 313.274 223.261C311.548 223.44 309.857 223.483 308.171 223.519L305.657 223.593L305.036 223.624C304.86 223.643 304.685 223.673 304.513 223.713C304.129 223.795 303.725 223.905 303.328 224.019C300.141 224.976 296.899 225.998 293.79 227.217L293.777 227.222C293.751 227.233 293.721 227.233 293.694 227.222C293.667 227.211 293.646 227.191 293.633 227.165C293.621 227.139 293.619 227.109 293.627 227.082C293.636 227.054 293.655 227.031 293.68 227.017C295.169 226.173 296.714 225.509 298.258 224.815C299.807 224.134 301.357 223.466 302.965 222.892C303.369 222.746 303.77 222.605 304.202 222.48C304.435 222.409 304.673 222.353 304.914 222.313L305.552 222.237L308.08 221.986C309.755 221.819 311.429 221.678 313.048 221.455C313.451 221.395 313.847 221.327 314.228 221.245C314.56 221.182 314.883 221.081 315.192 220.944C315.454 220.804 315.851 220.532 316.173 220.334C316.502 220.107 316.827 219.875 317.144 219.638C318.366 218.788 319.326 217.612 319.914 216.244C320.136 215.535 320.263 214.799 320.291 214.057L320.332 213.699C320.357 213.515 320.402 213.334 320.465 213.16C320.574 212.868 320.719 212.591 320.898 212.336C321.178 211.951 321.482 211.584 321.809 211.237C322.999 209.996 323.884 208.876 323.867 207.749C323.864 207.571 323.902 207.396 323.977 207.235C324.052 207.074 324.162 206.932 324.3 206.82L324.341 206.787C324.963 206.277 325.539 205.714 326.064 205.103C326.591 204.509 327.045 203.854 327.416 203.152C327.764 202.51 327.994 201.812 328.096 201.089C328.148 200.416 328.034 199.741 327.763 199.122L327.737 199.058C327.618 198.774 327.617 198.454 327.733 198.169C327.85 197.883 328.076 197.656 328.36 197.537C328.466 197.493 328.578 197.465 328.692 197.453C331.487 197.195 334.25 196.675 336.946 195.899C338.246 195.528 339.497 195.002 340.671 194.333C341.192 194.03 341.656 193.638 342.042 193.174C342.34 192.833 342.495 192.39 342.476 191.938C342.482 191.712 342.085 191.416 341.503 191.234C340.875 191.051 340.228 190.941 339.574 190.909C338.173 190.836 336.767 190.871 335.371 191.014C332.525 191.3 329.7 191.764 326.912 192.401L326.942 192.392C325.105 192.966 323.264 193.461 321.401 193.906C319.536 194.358 317.647 194.703 315.743 194.941C314.779 195.063 313.809 195.119 312.838 195.108C312.35 195.122 311.852 195.032 311.358 194.996C310.875 194.883 310.331 194.787 309.911 194.653C309.403 194.539 308.912 194.361 308.449 194.123C308.177 193.97 307.938 193.764 307.746 193.517C307.555 193.27 307.415 192.987 307.335 192.685C307.138 191.642 307.187 190.567 307.478 189.546L307.463 189.621C307.829 186.527 308.144 183.425 308.555 180.337L309.725 181.433C306.83 182.226 304.079 183.473 301.573 185.126C300.334 185.948 299.201 186.92 298.201 188.02C297.197 189.139 296.311 190.36 295.559 191.662C293.957 194.286 292.508 197.054 291.072 199.831C289.773 202.798 287.445 205.196 284.518 206.581C284.491 206.593 284.462 206.594 284.434 206.585C284.407 206.575 284.384 206.556 284.37 206.531C284.357 206.505 284.353 206.476 284.36 206.448C284.368 206.42 284.385 206.395 284.41 206.38V206.38Z" fill="black"/>
<path d="M328.887 199.569L319.991 199.365L328.722 197.647C328.847 197.622 328.976 197.622 329.101 197.647C329.226 197.672 329.345 197.721 329.451 197.792C329.557 197.863 329.648 197.954 329.719 198.061C329.79 198.167 329.839 198.286 329.864 198.411C329.888 198.536 329.888 198.665 329.863 198.79C329.838 198.916 329.788 199.034 329.717 199.14C329.645 199.246 329.554 199.337 329.448 199.408C329.341 199.478 329.222 199.527 329.097 199.551C329.028 199.565 328.957 199.571 328.887 199.569Z" fill="black"/>
<path d="M285.467 208.082C282.968 204.966 282.187 197.2 282.187 197.2C274.768 199.418 256.273 218.135 249.076 211.555C236.322 199.881 223.172 181.32 217.808 175.174C214.538 171.44 211.73 173.148 210.032 175.049C208.998 176.252 208.325 177.724 208.093 179.294C204.986 197.923 184.803 164.243 184.803 164.243C137.646 203.866 140.212 248.843 140.646 261.598C140.697 265.073 141.229 268.524 142.228 271.853C142.421 271.583 142.537 271.438 142.537 271.438C152.871 281.644 166.01 288.543 180.279 291.255C181.388 290.222 194.827 284.858 211.064 280.478C213.564 273.909 215.409 267.11 216.573 260.179C212.048 257.044 207.639 253.764 203.346 250.339C199.024 246.943 194.818 243.402 190.679 239.784C186.569 236.128 182.527 232.394 178.706 228.41C176.796 226.422 174.944 224.377 173.226 222.206C172.367 221.12 171.565 219.99 170.824 218.82C169.997 217.704 169.49 216.383 169.358 215C169.469 215.662 169.718 216.293 170.091 216.852C170.436 217.436 170.819 217.997 171.239 218.531C172.087 219.595 172.989 220.615 173.94 221.589C175.802 223.576 177.78 225.467 179.767 227.339C183.762 231.072 187.843 234.719 191.952 238.337L204.301 249.191C208.431 252.799 212.521 256.462 216.573 260.179C229.877 268.997 238.252 269.74 238.252 269.74C254.267 270.377 280.161 241.077 280.161 241.077L293.185 228.892C295.626 226.451 287.966 211.198 285.467 208.082ZM171.017 195.27C170.129 196.496 169.372 197.812 168.76 199.197C168.119 200.573 167.612 202.007 167.245 203.48C166.865 205.011 166.582 206.564 166.396 208.131C165.827 206.57 165.613 204.902 165.769 203.249C165.875 201.57 166.291 199.924 166.994 198.396C167.684 196.856 168.659 195.462 169.869 194.286C171.037 193.111 172.432 192.185 173.969 191.565C172.927 192.858 171.876 193.987 171.017 195.27ZM279.235 210.571C277.469 211.854 275.733 213.166 273.948 214.421C270.378 216.91 266.751 219.351 263.017 221.608C259.293 223.875 255.501 226.056 251.613 228.043C249.655 229.027 247.687 229.992 245.69 230.889C243.681 231.813 241.627 232.634 239.535 233.349L238.975 233.542L238.551 233.089C234.701 228.95 230.852 224.811 226.954 220.72C225.025 218.656 223.047 216.64 221.079 214.613C219.13 212.559 217.123 210.571 215.136 208.555C213.158 206.548 211.113 204.599 209.106 202.612C207.061 200.663 205.006 198.724 202.922 196.823C200.838 194.903 198.703 193.054 196.516 191.276C195.406 190.408 194.297 189.53 193.139 188.719C192.017 187.862 190.8 187.137 189.512 186.558C190.843 187.057 192.112 187.707 193.293 188.497C194.499 189.24 195.647 190.08 196.805 190.9C199.082 192.588 201.32 194.344 203.491 196.158C207.852 199.795 212.039 203.625 216.139 207.532C220.249 211.44 224.275 215.427 228.218 219.495C232.058 223.374 235.772 227.368 239.515 231.333C243.355 229.888 247.113 228.236 250.774 226.384C254.643 224.464 258.454 222.399 262.216 220.257L265.043 218.637L267.841 216.968C269.712 215.887 271.545 214.72 273.398 213.591L278.926 210.127C280.74 208.931 282.553 207.744 284.396 206.577C282.689 207.928 280.968 209.259 279.235 210.571L279.235 210.571Z" fill="black"/>
<path d="M279.823 425.231C276.225 422.771 271.507 419.472 267.001 416.288H266.992L263.422 417.484C262.264 417.899 261.107 418.285 260.016 418.787C258.912 419.242 257.852 419.801 256.852 420.456C255.842 421.147 254.927 421.967 254.131 422.897C254.448 421.608 255.132 420.438 256.1 419.53C257.072 418.632 258.191 417.908 259.409 417.388C260.604 416.882 261.859 416.529 263.142 416.336C264.416 416.127 265.713 416.111 266.992 416.288C264.3 414.387 261.685 412.535 259.428 410.924C257.141 412.004 254.855 412.796 252.646 413.731C251.548 414.17 250.481 414.683 249.452 415.265C248.387 415.781 247.527 416.641 247.011 417.706C246.948 417.041 247.104 416.374 247.455 415.805C247.803 415.238 248.24 414.73 248.748 414.3C249.743 413.478 250.86 412.815 252.057 412.332C253.226 411.856 254.437 411.491 255.675 411.242C256.908 410.981 258.169 410.874 259.428 410.924C255.222 407.943 252.231 405.791 252.231 405.791C251.594 405.926 250.977 405.955 250.359 406.061C249.751 406.167 249.144 406.225 248.555 406.36C248.256 406.428 247.967 406.486 247.667 406.534L246.799 406.766C246.222 406.907 245.652 407.077 245.092 407.277C243.96 407.66 242.863 408.138 241.811 408.705C240.72 409.278 239.672 409.929 238.676 410.654C239.269 409.495 240.121 408.488 241.165 407.711C242.197 406.906 243.354 406.273 244.59 405.84C245.83 405.417 247.129 405.195 248.439 405.184C249.729 405.157 251.014 405.362 252.231 405.791C252.231 405.791 252.79 396.028 246.24 397.485C244.88 397.804 243.66 398.552 242.757 399.617C240.866 401.788 236.119 406.09 229.366 404.161C227.858 403.72 226.466 402.951 225.289 401.911C224.111 400.87 223.178 399.583 222.555 398.141C221.32 395.324 218.995 391.638 215.367 391.995C209.569 392.564 210.428 402.55 210.428 402.55C210.428 402.55 209.752 408.502 206.453 411.59C205.133 412.726 204.111 414.167 203.474 415.787C202.837 417.408 202.604 419.159 202.796 420.89C203.433 425.251 206.723 429.582 217.866 428.183C217.866 428.183 225.661 426.707 242.477 434.551C259.303 442.394 282.631 449.186 286.21 435.689C286.285 435.05 286.164 434.403 285.865 433.833C285.565 433.263 285.1 432.797 284.531 432.496C283.941 432.271 283.298 432.218 282.679 432.342C282.051 432.422 281.444 432.615 280.884 432.911C280.044 433.344 279.317 433.969 278.762 434.734C278.559 434.985 278.357 435.284 278.125 435.525C277.209 436.552 276.11 437.399 274.884 438.024C272.413 439.202 269.687 439.746 266.953 439.606C264.258 439.463 261.593 438.973 259.023 438.15H259.003L258.955 438.13C254.585 436.336 250.166 434.609 245.719 433.027C243.49 432.235 241.252 431.483 238.994 430.817C236.793 430.098 234.512 429.648 232.202 429.476C229.783 429.318 227.389 428.894 225.063 428.212C222.753 427.594 220.476 426.856 218.242 426.003C216.001 425.17 213.822 424.181 211.72 423.041C210.665 422.478 209.65 421.843 208.681 421.141C208.194 420.796 207.736 420.412 207.311 419.993C206.875 419.583 206.493 419.119 206.173 418.613C206.92 419.534 207.825 420.314 208.845 420.919C209.842 421.548 210.88 422.109 211.952 422.597C214.098 423.575 216.294 424.439 218.532 425.183C220.765 425.936 223.035 426.577 225.333 427.103C227.596 427.657 229.905 428.002 232.231 428.135C232.791 428.154 233.476 428.193 234.084 428.251C234.682 428.357 235.29 428.425 235.888 428.55L237.653 428.946L239.399 429.409C241.696 430.074 243.963 430.817 246.22 431.599C250.706 433.21 255.138 434.956 259.515 436.837C261.944 437.647 264.46 438.165 267.011 438.381C269.56 438.613 272.127 438.205 274.478 437.194C275.626 436.658 276.666 435.916 277.546 435.004C277.778 434.773 277.961 434.532 278.193 434.281C278.416 434.017 278.658 433.769 278.916 433.538C279.427 433.073 280.01 432.695 280.643 432.419C281.27 432.134 281.943 431.964 282.631 431.917C283.321 431.832 284.021 431.935 284.657 432.216C284.971 432.363 285.252 432.572 285.482 432.83C285.713 433.089 285.888 433.392 285.998 433.721C286.212 434.354 286.284 435.026 286.21 435.689C286.21 435.689 289.558 431.869 279.823 425.231ZM231.72 418.179C230.61 420.128 225.208 421.488 222.526 418.131C219.419 414.223 216.264 412.988 217.374 411.049C218.493 409.11 222.603 409.129 226.568 411.098C230.533 413.075 232.839 416.24 231.72 418.179Z" fill="black"/>
<path d="M243.664 391.715L243.191 395.391C243.027 396.78 242.825 398.16 242.757 399.617C242.106 398.29 241.745 396.84 241.696 395.362C241.599 394.073 241.619 392.779 241.754 391.493C242.4 391.571 243.037 391.648 243.664 391.715Z" fill="black"/>
<path d="M221.744 388.638C221.571 389.4 221.378 390.153 221.137 390.905C220.816 391.941 220.392 392.943 219.873 393.896C219.663 392.829 219.585 391.74 219.641 390.654C219.674 389.882 219.752 389.112 219.873 388.348C220.49 388.445 221.108 388.541 221.744 388.638Z" fill="black"/>
<path d="M185.083 430.566C184.651 429.867 184.07 429.271 183.381 428.821C182.692 428.37 181.913 428.077 181.099 427.962C179.468 427.749 177.713 427.72 176.024 427.499C174.326 427.296 172.635 427.016 170.95 426.659C167.539 425.995 164.265 424.763 161.263 423.013C160.262 422.395 159.333 421.667 158.494 420.842C165.074 430.094 174.645 436.577 183.154 434.464C183.163 434.464 183.173 434.454 183.183 434.454C183.947 434.112 184.602 433.564 185.074 432.872C185.29 432.527 185.406 432.128 185.408 431.721C185.409 431.313 185.297 430.913 185.083 430.566ZM187.264 422.761C183.183 417.639 178.369 417.658 179.044 413.326C179.189 412.419 179.333 411.503 179.478 410.596L176.593 408.203C175.638 407.441 174.693 406.689 173.689 406.033C172.7 405.377 171.662 404.799 170.583 404.306C169.447 403.848 168.267 403.508 167.062 403.293C168.325 402.911 169.666 402.871 170.95 403.177C172.226 403.505 173.439 404.043 174.538 404.769C175.605 405.505 176.575 406.374 177.423 407.354C178.277 408.314 178.971 409.405 179.478 410.586C179.97 407.489 180.462 404.46 180.896 401.845C178.774 400.476 176.892 398.961 174.924 397.61C173.968 396.922 172.962 396.306 171.914 395.767C170.884 395.186 169.708 394.914 168.528 394.986C169.073 394.61 169.718 394.405 170.38 394.397C171.043 394.382 171.703 394.47 172.339 394.658C173.569 395.039 174.732 395.612 175.783 396.356C176.815 397.086 177.771 397.916 178.639 398.836C179.519 399.736 180.278 400.748 180.896 401.845C181.687 396.983 182.266 393.51 182.266 393.51C181.456 392.526 180.761 391.561 179.931 390.702C179.15 389.835 178.291 389.041 177.365 388.329C176.45 387.595 175.471 386.943 174.442 386.38C173.377 385.792 172.282 385.261 171.162 384.789C172.435 384.683 173.716 384.858 174.915 385.3C177.378 386.133 179.481 387.785 180.877 389.979C181.568 391.053 182.04 392.253 182.266 393.51C182.266 393.51 191.74 389.265 187.215 384.615C186.207 383.636 184.913 383.003 183.52 382.811C180.578 382.309 174.23 380.505 172.802 374.07C172.509 372.572 172.574 371.025 172.991 369.557C173.409 368.088 174.167 366.739 175.204 365.619C177.259 363.255 179.613 359.589 177.529 356.801C174.201 352.344 165.209 357.852 165.209 357.852C165.209 357.852 159.276 360.158 154.78 358.952C153.023 358.429 151.175 358.29 149.36 358.547C147.545 358.803 145.807 359.448 144.264 360.438C140.453 363.062 137.964 367.838 144.631 376.241C144.631 376.241 149.773 381.894 150.477 399.385C150.866 405.191 152.554 410.836 155.417 415.902C155.279 415.472 155.167 415.034 155.079 414.59V414.561L155.069 414.523C154.664 410.085 154.162 405.637 153.506 401.238C153.188 399.038 152.822 396.838 152.349 394.677C151.975 392.535 151.293 390.458 150.323 388.512C149.32 386.451 148.565 384.278 148.075 382.039C147.552 379.841 147.152 377.615 146.879 375.372C146.579 373.138 146.463 370.882 146.531 368.629C146.558 367.5 146.668 366.374 146.859 365.262C147.029 364.141 147.427 363.068 148.027 362.107C147.522 363.102 147.22 364.187 147.139 365.3C147.022 366.406 146.986 367.518 147.033 368.629C147.128 370.847 147.363 373.058 147.737 375.247C148.094 377.44 148.574 379.611 149.175 381.75C149.739 383.862 150.518 385.912 151.5 387.866L151.915 388.619C152.059 388.889 152.175 389.159 152.301 389.429C152.522 389.969 152.715 390.519 152.889 391.059C153.246 392.159 153.535 393.259 153.777 394.359C154.278 396.568 154.664 398.787 155.002 401.016C155.658 405.444 156.14 409.872 156.468 414.339L156.478 414.407C156.772 415.959 157.416 417.424 158.359 418.69C159.359 419.977 160.565 421.089 161.929 421.98C164.771 423.75 167.893 425.026 171.162 425.752C174.476 426.494 177.829 427.051 181.205 427.421C182.074 427.589 182.896 427.946 183.613 428.466C184.33 428.986 184.924 429.657 185.353 430.432C185.563 430.829 185.666 431.275 185.653 431.724C185.626 432.173 185.472 432.604 185.209 432.969C184.695 433.624 184.015 434.13 183.241 434.435C184.225 434.107 193.593 430.692 187.264 422.761V422.761ZM160.723 382.743C158.359 382.762 154.471 379.01 156.353 375.218C158.543 370.799 158.176 367.625 160.549 367.606C162.913 367.577 164.872 370.944 164.92 375.131C164.968 379.309 163.087 382.714 160.723 382.743Z" fill="black"/>
<path d="M189.724 380.428L187.727 381.171C186.337 381.701 184.939 382.174 183.52 382.811C184.501 381.592 185.711 380.576 187.08 379.82C187.785 379.405 188.498 379.009 189.232 378.662L189.724 380.428Z" fill="black"/>
<path d="M184.167 360.332C183.231 360.602 182.285 360.843 181.33 361.026C180.207 361.259 179.063 361.378 177.915 361.383C178.826 360.678 179.813 360.076 180.858 359.589C181.766 359.161 182.701 358.79 183.655 358.479L184.167 360.332Z" fill="black"/>
<path d="M211.028 280.345C218.099 278.178 225.294 276.439 232.574 275.137C236.227 274.526 239.91 274.047 243.623 273.789C247.364 273.483 251.126 273.526 254.86 273.919C256.766 274.184 258.635 274.673 260.427 275.376C261.33 275.73 262.21 276.139 263.062 276.601C264.749 277.574 266.306 278.758 267.694 280.125C269.716 282.216 271.354 284.646 272.533 287.304C274.056 290.8 275.049 294.504 275.48 298.293C275.958 302.055 276.006 305.859 275.624 309.632L274.745 308.295C276.665 308.88 278.454 309.83 280.015 311.091C281.524 312.378 282.796 313.919 283.775 315.645C284.711 317.339 285.433 319.143 285.927 321.015C286.421 322.877 286.712 324.788 286.793 326.713L286.786 326.621C287.186 330.365 287.131 334.143 286.622 337.873C286.361 339.744 285.948 341.59 285.387 343.393C284.799 345.192 284.052 346.934 283.153 348.599C281.311 351.908 278.779 354.783 275.728 357.027C272.704 359.283 269.237 360.874 265.554 361.698L265.921 361.307C265.334 366.473 264.728 371.638 264.197 376.81L262.551 392.322L262.522 392.602L262.28 392.719C261.652 392.988 260.985 393.155 260.304 393.212C259.666 393.286 259.035 393.326 258.407 393.344C257.15 393.383 255.902 393.364 254.659 393.314C252.17 393.22 249.696 393.025 247.225 392.804C242.287 392.383 237.38 391.694 232.469 391.073C227.562 390.414 222.631 389.89 217.744 389.088L203.072 386.756L201.861 386.563L202.085 385.324L203.417 377.964L205.113 379.392C202.663 380.237 200.148 380.879 197.593 381.311C195.079 381.773 192.582 382.136 190.032 382.423L188.905 382.55L188.589 381.426L181.948 357.805L183.519 358.88C178.411 359.434 173.249 359.226 168.201 358.263C163.144 357.243 158.301 355.36 153.882 352.697C149.479 350.038 145.554 346.656 142.274 342.693C141.455 341.707 140.674 340.688 139.945 339.624C139.577 339.094 139.228 338.55 138.888 337.984C138.508 337.356 138.297 336.832 137.993 336.251C137.423 335.118 136.86 333.983 136.372 332.815L135.609 331.076L134.928 329.303C131.214 319.833 129.915 309.587 131.147 299.49C131.776 294.488 133.03 289.585 134.881 284.896C136.687 280.213 139.122 275.798 142.117 271.771L142.339 271.935C136.909 280.251 133.588 289.766 132.667 299.656C132.217 304.55 132.383 309.481 133.162 314.333C133.918 319.178 135.236 323.918 137.089 328.457L137.781 330.159L138.552 331.827C139.046 332.949 139.612 334.035 140.183 335.116C140.465 335.634 140.749 336.257 141.028 336.687C141.34 337.182 141.672 337.682 142.025 338.168C142.724 339.145 143.478 340.091 144.268 341.005C149.006 346.537 155.048 350.8 161.848 353.411C168.647 356.021 175.99 356.896 183.213 355.956L184.457 355.824L184.784 357.031L191.206 380.722L189.764 379.725C192.211 379.477 194.695 379.145 197.129 378.724C199.536 378.344 201.909 377.77 204.223 377.006L206.342 376.26L205.919 378.434L204.492 385.776L203.505 384.345L218.088 386.949C220.515 387.41 222.957 387.756 225.395 388.146L232.712 389.299C237.593 390.059 242.46 390.896 247.368 391.431C249.816 391.711 252.268 391.967 254.718 392.121C255.943 392.201 257.169 392.25 258.384 392.243C258.992 392.241 259.596 392.217 260.188 392.163C260.743 392.134 261.289 392.015 261.805 391.812L261.534 392.209L263.323 376.713C263.936 371.55 264.475 366.378 265.033 361.209L265.067 360.893L265.4 360.818C268.92 359.974 272.219 358.386 275.075 356.163C277.923 353.948 280.253 351.139 281.905 347.932C282.706 346.328 283.362 344.655 283.866 342.934C284.345 341.202 284.684 339.435 284.878 337.649C285.257 334.058 285.2 330.434 284.708 326.856L284.707 326.853L284.701 326.764C284.568 325.02 284.25 323.295 283.751 321.619C283.273 319.946 282.597 318.336 281.736 316.824C280.876 315.363 279.768 314.063 278.462 312.981C277.155 311.936 275.66 311.149 274.058 310.662L273.081 310.321L273.178 309.326C273.508 305.752 273.465 302.154 273.051 298.589C272.677 295.035 271.776 291.557 270.378 288.268C269.673 286.657 268.794 285.128 267.755 283.71C267.237 283.007 266.68 282.335 266.085 281.696C264.862 280.455 263.487 279.373 261.993 278.476C261.231 278.047 260.444 277.666 259.635 277.334C258 276.67 256.298 276.183 254.558 275.883C250.965 275.405 247.334 275.26 243.714 275.452C240.064 275.598 236.412 275.964 232.777 276.465C225.486 277.482 218.252 278.866 211.1 280.611L211.028 280.345Z" fill="black"/>
<path d="M157.945 298.61C160.861 297.793 163.657 296.597 166.263 295.052C167.496 294.276 168.617 293.335 169.594 292.254C170.592 291.102 171.463 289.846 172.191 288.507C172.123 290.143 171.624 291.731 170.745 293.113C169.86 294.524 168.666 295.718 167.254 296.603C165.864 297.471 164.334 298.091 162.732 298.435C161.163 298.804 159.537 298.863 157.945 298.61Z" fill="black"/>
<path d="M168.594 298.61C170.355 297.117 172.225 295.758 174.19 294.545C176.132 293.297 178.166 292.198 180.275 291.258C178.516 292.753 176.645 294.112 174.68 295.323C172.737 296.57 170.702 297.668 168.594 298.61Z" fill="black"/>
<path d="M158.082 283.09L157.523 296.407C157.356 300.841 157.188 305.273 157.162 309.685C157.136 311.89 157.187 314.093 157.335 316.243L157.489 317.828C157.596 318.324 157.65 318.774 157.789 319.309C158.085 320.394 158.358 321.455 158.675 322.483C159.192 324.474 160.089 326.346 161.317 327.997C161.908 328.734 162.657 329.328 163.509 329.736C164.36 330.144 165.293 330.354 166.238 330.353C168.318 330.33 170.375 329.906 172.295 329.105C174.32 328.298 176.277 327.331 178.148 326.213C181.991 324.032 185.762 321.668 189.519 319.294C193.27 316.909 197.026 314.525 200.834 312.216C204.652 309.925 208.494 307.646 212.542 305.716C216.574 303.665 220.838 302.107 225.242 301.074C227.539 300.497 229.927 300.377 232.27 300.721C234.649 301.085 236.922 301.952 238.939 303.266C240.981 304.584 242.699 306.345 243.968 308.419C245.248 310.521 245.99 312.906 246.128 315.363C246.175 316.52 246.163 317.679 246.091 318.835C246.023 319.955 245.972 321.078 245.879 322.194C245.719 324.432 245.507 326.662 245.242 328.885C242.886 346.586 238.657 363.987 232.626 380.795L232.361 380.716C236.545 363.441 240.376 346.095 242.316 328.552C242.551 326.36 242.787 324.17 242.943 321.975C243.037 320.879 243.089 319.782 243.16 318.685C243.198 317.603 243.307 316.444 243.253 315.497C243.156 313.485 242.585 311.524 241.586 309.775C240.587 308.025 239.188 306.537 237.504 305.431C235.782 304.281 233.844 303.492 231.808 303.113C229.771 302.734 227.68 302.772 225.659 303.225C221.367 304.058 217.179 305.355 213.167 307.093C205.065 310.689 197.312 315.025 190.006 320.046L184.486 323.781C182.655 325.045 180.824 326.31 178.946 327.526C177.073 328.804 175.099 329.927 173.043 330.885C170.909 331.93 168.584 332.53 166.211 332.651C164.931 332.667 163.663 332.415 162.487 331.912C161.308 331.376 160.267 330.581 159.44 329.585C157.963 327.694 156.904 325.512 156.331 323.181C156.01 322.082 155.747 320.986 155.474 319.924C155.341 319.383 155.246 318.729 155.138 318.136L154.995 316.402C154.894 314.117 154.928 311.873 155.023 309.638C155.471 300.735 156.4 291.863 157.807 283.061L158.082 283.09Z" fill="black"/>
<path d="M183.367 357.422C186.371 355.453 189.28 353.362 192.096 351.148C194.919 348.949 197.667 346.663 200.341 344.292C203 341.908 205.611 339.472 208.096 336.915C210.605 334.379 212.985 331.725 215.312 329.027L217.688 326.271L216.887 329.82C215.972 333.876 214.986 337.915 214.033 341.962L211.065 354.077C210.054 358.11 209.02 362.138 207.964 366.16C206.871 370.174 205.825 374.199 204.667 378.198C205.398 374.1 206.242 370.028 207.038 365.944C207.868 361.869 208.724 357.799 209.605 353.736L212.305 341.559C213.242 337.508 214.146 333.45 215.12 329.408L216.695 330.201C214.312 332.917 211.898 335.611 209.284 338.105C206.719 340.646 204.013 343.041 201.229 345.332C198.459 347.641 195.557 349.787 192.588 351.825C189.627 353.869 186.547 355.738 183.367 357.422Z" fill="black"/>
<path d="M274.406 309.477C274.037 313.857 273.489 318.206 272.878 322.544C272.278 326.884 271.572 331.206 270.846 335.524C270.086 339.836 269.303 344.145 268.414 348.435C267.537 352.727 266.596 357.008 265.474 361.258C265.84 356.878 266.387 352.529 266.999 348.19C267.599 343.851 268.305 339.529 269.033 335.211C269.796 330.899 270.579 326.591 271.468 322.301C272.345 318.009 273.286 313.728 274.406 309.477Z" fill="black"/>
<path d="M133.064 299.924C134.83 299.763 136.597 299.634 138.363 299.538L138.676 299.52L138.746 299.876C139.308 302.763 139.906 305.652 140.544 308.521C141.16 311.396 141.86 314.248 142.593 317.084C143.348 319.914 144.144 322.731 145.146 325.461C145.606 326.845 146.175 328.176 146.76 329.497L147.71 331.437L148.83 333.26L149.126 333.742L148.782 334.08C148.199 334.66 147.653 335.276 147.147 335.925C146.635 336.581 146.158 337.263 145.717 337.968C145.289 338.684 144.913 339.43 144.592 340.2C144.287 340.988 144.074 341.807 143.957 342.643C143.919 341.781 143.998 340.917 144.193 340.076C144.403 339.232 144.69 338.408 145.051 337.617C145.415 336.825 145.835 336.061 146.309 335.33C146.781 334.588 147.302 333.877 147.869 333.204L147.821 334.024C146.001 331.601 144.55 328.922 143.516 326.074C142.439 323.289 141.546 320.436 140.844 317.534C140.109 314.65 139.526 311.735 139.045 308.808C138.582 305.875 138.194 302.938 137.98 299.972L138.363 300.31C136.597 300.21 134.83 300.082 133.064 299.924Z" fill="black"/>
<path d="M226.201 124.387C226.201 124.387 232.553 123.215 229.295 115.985C226.037 108.756 208.235 104.299 189.596 107.872C170.957 111.445 175.614 123.361 176.839 128.702C178.064 134.043 182.635 159.688 187.697 152.403C187.697 152.403 191.662 145.393 191.656 144.501C191.65 143.61 187.664 138.106 188.463 133.675C188.96 130.912 192.256 128.843 194.873 132.437C196.183 134.291 196.822 136.535 196.686 138.801C196.541 141.441 196.236 144.07 195.772 146.672C194.514 154.051 196.145 157.963 197.736 160.3C199.327 162.637 213.599 176.636 219.32 172.403C219.32 172.403 227.629 159.742 226.861 156.032C226.093 152.323 222.642 156.179 220.863 156.786C219.084 157.392 210.16 160.632 203.744 152.295C203.744 152.295 198.497 145.347 201.196 140.157C203.895 134.968 201.259 127.527 202.195 125.321C203.132 123.116 203.186 122.402 206.275 122.144C213.001 121.502 219.787 122.266 226.201 124.387Z" fill="black"/>
<path d="M226.201 124.387C228.042 126.991 229.133 130.051 229.356 133.233C229.406 134.037 229.395 134.843 229.325 135.645L229.163 137.95C229.053 139.484 228.94 141.018 228.896 142.539C228.862 143.297 228.837 144.061 228.866 144.777C228.868 145.017 228.895 145.255 228.947 145.489C229.074 145.686 229.352 145.993 229.589 146.273C230.733 147.436 231.687 148.772 232.415 150.231C232.633 150.711 232.692 151.248 232.585 151.764C232.46 152.295 232.136 152.757 231.68 153.057C231.294 153.264 230.883 153.421 230.457 153.524L229.329 153.853C228.949 153.952 228.566 154.045 228.173 154.123C227.978 154.161 227.767 154.196 227.567 154.215C227.509 154.22 227.454 154.238 227.404 154.267C227.353 154.296 227.31 154.335 227.277 154.383C227.092 154.685 226.984 155.029 226.962 155.383C226.911 155.765 226.893 156.151 226.909 156.536C226.634 155.761 226.615 154.917 226.855 154.13C226.913 154.006 226.998 153.897 227.103 153.81C227.209 153.724 227.332 153.661 227.465 153.628C227.645 153.581 227.811 153.525 227.99 153.46C228.341 153.33 228.694 153.182 229.045 153.029L230.1 152.569C230.416 152.451 230.717 152.298 230.999 152.113C231.178 151.956 231.295 151.74 231.33 151.505C231.348 151.252 231.283 151 231.146 150.787C230.363 149.544 229.422 148.408 228.347 147.407C228.039 147.099 227.756 146.767 227.503 146.412C227.336 146.144 227.232 145.842 227.199 145.528C227.163 145.292 227.146 145.082 227.133 144.873C227.086 144.045 227.098 143.26 227.122 142.471C227.203 140.9 227.324 139.347 227.493 137.799L227.781 135.484C227.876 134.714 227.955 134.015 227.976 133.264C227.974 130.217 227.371 127.2 226.201 124.387Z" fill="black"/>
<path d="M221.781 144.5C222.127 144.488 222.454 144.343 222.694 144.094C222.934 143.846 223.068 143.514 223.068 143.169C223.068 142.823 222.934 142.491 222.694 142.243C222.454 141.994 222.127 141.849 221.781 141.837C221.436 141.849 221.109 141.994 220.869 142.243C220.629 142.491 220.495 142.823 220.495 143.169C220.495 143.514 220.629 143.846 220.869 144.094C221.109 144.343 221.436 144.488 221.781 144.5Z" fill="black"/>
<path d="M228.655 141.392C228.649 141.213 228.602 141.037 228.52 140.877C228.437 140.718 228.319 140.579 228.175 140.471C228.031 140.363 227.865 140.289 227.689 140.254C227.513 140.219 227.331 140.223 227.157 140.268C226.593 140.076 226.029 139.883 225.467 139.696C223.817 139.137 222.147 138.656 220.491 138.141L215.485 136.734C212.136 135.833 208.753 135.044 205.358 134.334C201.946 133.603 198.499 133.047 195.031 132.667C198.229 134.058 201.495 135.286 204.817 136.345C208.121 137.428 211.447 138.424 214.798 139.307L219.843 140.576C221.537 140.953 223.225 141.374 224.927 141.699L224.991 141.711C223.552 143.142 222.233 145.673 222.562 150.109C222.591 150.676 222.836 151.21 223.246 151.602C224.163 152.434 225.998 152.586 228.194 144.667C228.494 143.601 228.649 142.5 228.655 141.392Z" fill="black"/>
<path d="M194.49 147.598C193.66 147.482 192.879 147.138 192.233 146.605C191.562 146.045 191.049 145.319 190.744 144.5L191.597 144.255C191.73 145.003 192.056 145.703 192.542 146.287C193.057 146.896 193.732 147.349 194.49 147.598Z" fill="black"/>
<path d="M186.584 153.496C186.554 156.72 186.197 159.933 185.516 163.084C185.186 164.67 184.735 166.228 184.165 167.745C183.879 168.509 183.526 169.248 183.111 169.952C182.717 170.677 182.124 171.276 181.402 171.677C181.999 171.157 182.454 170.494 182.725 169.75C183.031 169.023 183.293 168.278 183.51 167.52C183.954 166.002 184.319 164.454 184.649 162.897C185.326 159.784 185.884 156.641 186.584 153.496Z" fill="black"/>
</svg>
