<svg width="296" height="168" viewBox="0 0 296 168" fill="none" xmlns="http://www.w3.org/2000/svg">
<path d="M248.286 96.2862C247.966 95.8674 247.685 95.4241 247.404 94.9758C241.988 86.4638 218.324 90.4982 218.324 90.4982C215.648 111.02 210.991 108.601 210.128 107.31C209.266 106.02 207.709 93.3454 206.679 91.6213C203.702 91.3602 197.621 91.4045 197.621 91.4045C191.752 91.5425 186.232 96.7049 180.802 105.113C175.371 113.517 165.796 120.63 165.796 120.63C165.796 120.63 168.639 120.891 169.674 127.098C170.31 127.295 172.217 126.453 173.607 125.773C174.847 125.167 176.229 124.913 177.603 125.039C179.841 125.246 183.059 125.96 185.631 128.394C185.947 128.688 186.283 128.962 186.636 129.211C186.962 129.029 187.144 128.906 187.144 128.906C192.447 126.709 195.551 119.079 195.551 119.079C195.121 118.119 194.871 117.089 194.812 116.039C194.728 114.994 194.743 113.944 194.856 112.901C194.97 111.882 195.049 110.872 195.078 109.857C195.13 108.834 195.085 107.808 194.945 106.793C195.368 107.757 195.608 108.791 195.655 109.842C195.727 110.887 195.706 111.935 195.591 112.975C195.477 113.99 195.413 115 195.389 116.02C195.352 117.042 195.407 118.066 195.551 119.079C195.849 121.801 196.493 124.475 197.468 127.034C198.869 127.498 200.314 127.817 201.78 127.985C202.502 128.067 203.228 128.09 203.954 128.054C204.696 128.012 205.436 127.933 206.171 127.817C205.508 128.214 204.778 128.488 204.018 128.625C203.637 128.699 203.252 128.745 202.864 128.763C202.476 128.768 202.088 128.753 201.701 128.719C200.932 128.635 200.177 128.453 199.454 128.177C198.733 127.909 198.062 127.522 197.468 127.034C197.883 128.173 198.434 129.258 199.109 130.265C202.765 130.476 206.347 131.373 209.67 132.911C210.513 133.3 211.286 133.822 212.065 134.206C212.858 134.602 213.688 134.917 214.544 135.147C216.267 135.616 218.041 135.867 219.827 135.896C220.733 135.925 221.596 135.876 222.532 135.847C223.452 135.836 224.372 135.881 225.287 135.98C227.1 136.167 228.909 136.374 230.703 136.689C231.388 136.807 232.068 136.935 232.748 137.068C232.433 136.64 232.162 136.182 231.94 135.699C231.593 134.971 231.334 134.206 231.166 133.418C230.994 132.631 230.89 131.83 230.856 131.024C230.811 130.212 230.842 129.397 230.949 128.591L230.954 128.566L230.964 128.532C231.234 127.657 231.401 126.755 231.462 125.842C231.538 124.916 231.548 123.986 231.491 123.059C231.427 122.131 231.314 121.207 231.151 120.29C230.974 119.389 230.737 118.448 230.609 117.497C230.351 115.602 230.291 113.686 230.432 111.778C230.481 110.828 230.58 109.877 230.722 108.941C230.854 108.001 231.033 107.069 231.26 106.148C231.026 108.021 230.898 109.906 230.875 111.793C230.848 113.667 230.985 115.539 231.284 117.389C231.348 117.852 231.462 118.305 231.555 118.759L231.861 120.157C232.043 121.103 232.163 122.059 232.221 123.019C232.366 124.945 232.144 126.881 231.565 128.724C231.443 129.481 231.38 130.247 231.378 131.014C231.372 131.795 231.433 132.574 231.56 133.344C231.684 134.117 231.882 134.876 232.152 135.61C232.342 136.126 232.581 136.623 232.866 137.093C233.936 137.31 234.995 137.556 236.045 137.847C237.81 138.308 239.506 138.998 241.091 139.901C239.453 139.131 237.729 138.558 235.956 138.196C235.044 137.984 234.126 137.801 233.201 137.645C233.199 137.642 233.195 137.64 233.191 137.64C232.339 137.492 231.481 137.364 230.619 137.251C228.825 137.019 227.027 136.817 225.228 136.674C224.337 136.591 223.442 136.556 222.547 136.571C221.675 136.6 220.719 136.664 219.812 136.635C217.964 136.597 216.129 136.322 214.352 135.817C213.46 135.556 212.595 135.21 211.769 134.783C211.355 134.581 210.951 134.31 210.572 134.088C210.193 133.857 209.813 133.615 209.414 133.418C207.82 132.582 206.142 131.918 204.407 131.438C202.672 130.918 200.902 130.526 199.109 130.266L195.034 130.655C195.16 130.828 195.252 131.024 195.305 131.231C196.355 134.625 194.842 147.92 194.842 147.92C200.662 152.186 232.876 158.782 232.876 158.782C253.643 162.274 253.835 143.841 253.835 143.841C257.551 110.764 250.247 98.8279 248.286 96.2862ZM222.301 130.004C221.92 130.078 221.535 130.124 221.147 130.142C220.759 130.147 220.371 130.133 219.984 130.098C219.215 130.014 218.46 129.832 217.737 129.556C217.016 129.288 216.345 128.902 215.751 128.413C217.152 128.877 218.597 129.196 220.063 129.364C220.785 129.446 221.511 129.469 222.236 129.433C222.979 129.392 223.719 129.313 224.454 129.197C223.791 129.594 223.061 129.867 222.301 130.004V130.004Z" fill="black"/>
<path d="M206.635 91.6447C206.493 91.4308 206.335 91.228 206.163 91.0378C205.991 90.8509 205.802 90.6801 205.599 90.5277C205.397 90.3787 205.18 90.2526 204.95 90.1519C204.729 90.0527 204.494 89.9891 204.253 89.9633L204.33 89.9483C203.835 90.1862 203.312 90.3608 202.774 90.4678C202.227 90.5856 201.664 90.6041 201.11 90.5223C200.536 90.4373 199.994 90.2008 199.541 89.8371C199.125 89.4646 198.76 89.0387 198.455 88.5705C197.861 87.6693 197.332 86.7264 196.872 85.749C196.41 84.7785 195.994 83.7973 195.606 82.7891L196.004 83.052C195.545 83.0986 195.082 83.0283 194.657 82.8475C194.41 82.7314 194.201 82.5466 194.056 82.3152C193.923 82.0915 193.843 81.8398 193.824 81.58C193.801 81.1347 193.864 80.6891 194.01 80.2678C194.139 79.8659 194.308 79.4783 194.516 79.111C194.905 78.5414 195.088 77.8556 195.034 77.1677C195.003 76.8328 194.911 76.5064 194.762 76.2047L194.493 75.702C194.4 75.5238 194.31 75.3426 194.226 75.1572C194.052 74.7863 193.913 74.3998 193.811 74.0028C193.7 73.6163 193.61 73.224 193.542 72.8277C193.456 72.4345 193.429 72.0315 193.38 71.633C193.364 71.2309 193.34 70.8297 193.361 70.428C193.395 68.8126 193.79 67.2253 194.519 65.783C194.544 65.7344 194.583 65.6941 194.63 65.6666C194.677 65.6391 194.731 65.6256 194.786 65.6277C194.841 65.6298 194.894 65.6474 194.939 65.6784C194.984 65.7094 195.019 65.7526 195.041 65.8029L195.045 65.8139C195.647 67.2021 196.414 68.5124 197.331 69.7158C198.245 70.931 199.341 71.9968 200.582 72.8748C201.82 73.7548 203.234 74.3565 204.726 74.6383C206.216 74.9129 207.748 74.8719 209.221 74.5179L209.231 74.5155C209.266 74.5077 209.302 74.5098 209.336 74.5218C209.369 74.5337 209.398 74.555 209.42 74.583C210.015 75.401 210.429 76.3358 210.635 77.3256C210.855 78.2925 210.967 79.2807 210.97 80.2722C210.975 81.259 210.905 82.2447 210.759 83.2208C210.586 84.1474 210.521 85.091 210.565 86.0327C210.609 86.9428 210.855 87.8317 211.286 88.635C211.715 89.4089 212.371 90.0328 213.166 90.4228C213.976 90.8005 214.87 90.9596 215.761 90.8841C216.673 90.8105 217.566 90.5807 218.401 90.2048C218.482 90.1699 218.57 90.1568 218.657 90.1669C218.744 90.177 218.827 90.2099 218.897 90.2622C218.967 90.3145 219.023 90.3845 219.057 90.465C219.092 90.5455 219.104 90.6337 219.094 90.7207L219.093 90.7271C218.731 93.8667 218.169 96.9799 217.409 100.048C217.015 101.596 216.497 103.11 215.861 104.576C215.534 105.325 215.133 106.038 214.663 106.707C214.417 107.051 214.138 107.371 213.831 107.661C213.511 107.974 213.135 108.224 212.723 108.399C212.282 108.588 211.794 108.642 211.321 108.553C210.854 108.457 210.424 108.228 210.084 107.893C209.902 107.721 209.757 107.514 209.658 107.285C209.578 107.087 209.511 106.884 209.456 106.677C209.346 106.283 209.262 105.896 209.179 105.507C208.854 103.957 208.63 102.403 208.382 100.852L207.652 96.2041C207.527 95.4305 207.396 94.6582 207.245 93.8908C207.122 93.1226 206.917 92.3696 206.635 91.6447L206.632 91.6377C206.627 91.6261 206.626 91.613 206.63 91.601C206.635 91.589 206.643 91.5791 206.655 91.5735C206.666 91.5678 206.679 91.5667 206.691 91.5705C206.703 91.5744 206.714 91.5827 206.72 91.5939C207.063 92.3084 207.321 93.0606 207.489 93.8352C207.685 94.598 207.859 95.3648 208.029 96.1323C208.37 97.6669 208.658 99.2106 208.967 100.749C209.27 102.287 209.584 103.825 209.93 105.34C210.02 105.716 210.112 106.094 210.223 106.453C210.273 106.625 210.333 106.793 210.403 106.958C210.464 107.087 210.551 107.203 210.658 107.297C210.882 107.514 211.166 107.657 211.474 107.708C211.781 107.759 212.096 107.715 212.378 107.581C212.999 107.25 213.52 106.76 213.89 106.161C214.303 105.531 214.659 104.866 214.952 104.172C215.549 102.75 216.031 101.283 216.393 99.7847C217.126 96.755 217.697 93.6885 218.104 90.5983L218.796 91.1206C217.852 91.5293 216.844 91.7725 215.817 91.8395C214.763 91.9114 213.709 91.7062 212.758 91.2442C211.803 90.7634 211.022 89.9971 210.523 89.0518C210.053 88.1288 209.795 87.1128 209.767 86.0777C209.741 85.0796 209.834 84.0821 210.044 83.106C210.22 82.1691 210.324 81.2201 210.355 80.2673C210.39 79.3181 210.317 78.368 210.137 77.4352C209.975 76.5151 209.625 75.6381 209.11 74.8589L209.309 74.9238C207.778 75.2409 206.199 75.2542 204.663 74.9629C203.898 74.8136 203.153 74.5772 202.442 74.2583C201.729 73.9483 201.047 73.5704 200.407 73.1297C199.131 72.2421 197.99 71.1761 197.017 69.9643C196.023 68.7633 195.179 67.4454 194.504 66.0398L195.03 66.0707C194.412 67.4423 194.105 68.9335 194.131 70.4377C194.134 71.1881 194.212 71.9364 194.365 72.6711C194.437 73.0391 194.528 73.4029 194.64 73.7609C194.738 74.1151 194.866 74.4603 195.023 74.793C195.1 74.961 195.183 75.1276 195.271 75.2933C195.359 75.4635 195.448 75.6087 195.553 75.8175C195.75 76.2139 195.873 76.6429 195.916 77.0834C195.983 77.9593 195.75 78.832 195.256 79.5585C194.892 80.1458 194.688 80.8177 194.663 81.5081C194.661 81.6326 194.694 81.7551 194.758 81.8615C194.823 81.968 194.916 82.0542 195.027 82.1101C195.322 82.2327 195.642 82.2819 195.96 82.2535L195.965 82.2533C196.05 82.2495 196.134 82.273 196.205 82.3204C196.276 82.3678 196.329 82.4366 196.358 82.5166C196.711 83.5005 197.109 84.4841 197.534 85.4449C197.942 86.4085 198.42 87.3415 198.963 88.2366C199.222 88.6708 199.536 89.0695 199.899 89.4225C200.269 89.7405 200.717 89.9546 201.197 90.0429C202.211 90.204 203.251 90.0745 204.195 89.6694L204.215 89.6612C204.233 89.654 204.253 89.6516 204.272 89.6542C204.548 89.6965 204.814 89.7838 205.062 89.9128C205.302 90.0353 205.528 90.1843 205.735 90.357C205.936 90.5314 206.12 90.725 206.284 90.935C206.446 91.1434 206.591 91.3637 206.72 91.594C206.723 91.5996 206.725 91.6057 206.726 91.6122C206.727 91.6186 206.726 91.6251 206.725 91.6313C206.723 91.6376 206.72 91.6434 206.716 91.6486C206.712 91.6537 206.707 91.658 206.701 91.6612C206.69 91.6671 206.677 91.6686 206.665 91.6656C206.653 91.6626 206.642 91.6551 206.635 91.6447Z" fill="black"/>
<path d="M194.972 82.5359C194.871 83.3194 194.766 84.0965 194.684 84.8749C194.607 85.6535 194.532 86.4302 194.508 87.2069C194.47 87.979 194.502 88.753 194.604 89.5193C194.655 89.8989 194.757 90.2698 194.907 90.6217C195.049 90.983 195.284 91.3 195.589 91.5397C195.228 91.354 194.93 91.0655 194.733 90.7105C194.538 90.3551 194.393 89.9742 194.303 89.5788C194.135 88.7954 194.07 87.9931 194.11 87.1927C194.142 86.3997 194.233 85.6103 194.382 84.8307C194.521 84.0521 194.718 83.285 194.972 82.5359Z" fill="black"/>
<path d="M194.735 65.9543C194.633 65.7773 194.569 65.5816 194.546 65.379C194.522 65.1764 194.541 64.9711 194.599 64.7758L194.681 64.4826L194.808 64.2108C194.852 64.121 194.893 64.0274 194.941 63.9399L195.108 63.6933C195.331 63.3644 195.582 63.0565 195.861 62.7736C196.143 62.4997 196.444 62.2473 196.738 61.985C197.981 61.0456 199.312 60.2289 200.713 59.5464C201.411 59.2149 202.118 58.8977 202.824 58.5824C203.538 58.2893 204.257 58.0064 204.977 57.7282C205.699 57.464 206.432 57.2358 207.161 56.9939C207.53 56.883 207.886 56.7571 208.28 56.6481C208.662 56.5455 209.05 56.4631 209.44 56.4013C210.993 56.146 212.581 56.2107 214.107 56.5913C215.628 56.9743 217.033 57.7185 218.204 58.7607C219.359 59.819 220.311 61.0795 221.012 62.4801C221.717 63.875 222.255 65.3475 222.617 66.8677L222.624 66.9086C223.004 68.9948 223.674 71.0179 224.614 72.9193C225.077 73.868 225.614 74.7792 226.219 75.6446C226.814 76.5117 227.487 77.3236 228.227 78.0705L229.399 79.1555C229.821 79.5242 230.217 79.9209 230.585 80.3429C231.339 81.1753 231.961 82.1181 232.429 83.1385C233.4 85.1548 233.642 87.4446 233.116 89.6195C233.113 89.6316 233.105 89.642 233.095 89.6486C233.084 89.6553 233.071 89.6576 233.059 89.6551C233.047 89.6527 233.036 89.6456 233.029 89.6354C233.021 89.6252 233.018 89.6126 233.02 89.6002L233.021 89.5947C233.159 88.5328 233.116 87.4552 232.894 86.4076C232.693 85.37 232.327 84.371 231.812 83.4481C231.559 82.9893 231.277 82.5469 230.968 82.1235C230.652 81.7059 230.308 81.3094 229.94 80.9365C229.581 80.5548 229.195 80.198 228.787 79.8686L227.535 78.7851C225.927 77.2324 224.621 75.3946 223.685 73.3651C223.219 72.3602 222.824 71.3236 222.504 70.263C222.173 69.2018 221.931 68.1144 221.783 67.0124L221.79 67.0531C221.495 65.5741 221.056 64.1278 220.477 62.7352C219.897 61.3404 219.047 60.0743 217.975 59.0102C217.423 58.4956 216.809 58.0522 216.148 57.6904C215.481 57.3366 214.768 57.0775 214.03 56.9203C212.551 56.6258 211.026 56.6621 209.564 57.0267C209.201 57.1104 208.844 57.2132 208.492 57.3345C208.154 57.4535 207.795 57.6084 207.438 57.7441L205.286 58.5492C204.579 58.8337 203.871 59.1135 203.158 59.3831L201.063 60.2833C199.683 60.9019 198.353 61.6255 197.084 62.4477C196.788 62.6733 196.481 62.892 196.193 63.1296C195.911 63.37 195.648 63.6322 195.407 63.9136L195.226 64.1254C195.174 64.2002 195.13 64.2797 195.081 64.357L194.937 64.5922L194.838 64.8449C194.696 65.1798 194.688 65.5566 194.815 65.8973L194.82 65.9077C194.825 65.9189 194.826 65.9316 194.822 65.9433C194.818 65.955 194.81 65.9647 194.799 65.9706C194.788 65.9765 194.776 65.9781 194.764 65.9751C194.752 65.972 194.742 65.9646 194.735 65.9542V65.9543Z" fill="black"/>
<path d="M195.954 75.4724C196.635 74.9825 197.379 74.5852 198.166 74.2911C198.559 74.1401 198.962 74.0189 199.374 73.9287C199.787 73.8238 200.218 73.804 200.64 73.8703C200.237 73.9574 199.842 74.077 199.459 74.2279L198.308 74.6633C197.537 74.9526 196.768 75.2507 195.954 75.4724Z" fill="black"/>
<path d="M198.109 78.2259C198.265 78.2205 198.411 78.1551 198.519 78.0436C198.627 77.932 198.687 77.783 198.687 77.6279C198.687 77.4728 198.627 77.3237 198.519 77.2121C198.411 77.1006 198.265 77.0352 198.109 77.0299C197.954 77.0352 197.807 77.1006 197.7 77.2121C197.592 77.3237 197.531 77.4728 197.531 77.6279C197.531 77.783 197.592 77.932 197.7 78.0436C197.807 78.1551 197.954 78.2205 198.109 78.2259Z" fill="black"/>
<path d="M197.145 85.4704C197.445 85.4797 197.745 85.4714 198.044 85.4455C198.336 85.4189 198.623 85.3837 198.908 85.3293C199.193 85.2739 199.478 85.2102 199.763 85.1322C200.048 85.0552 200.335 84.9703 200.64 84.8941C200.413 85.1093 200.154 85.2878 199.872 85.4234C199.59 85.5611 199.29 85.6612 198.981 85.7211C198.359 85.8553 197.709 85.7665 197.145 85.4704Z" fill="black"/>
<path d="M194.926 146.153C193.444 145.608 191.92 145.183 190.37 144.884C188.844 144.573 187.276 144.523 185.733 144.736L185.165 144.831L184.611 144.982C184.243 145.085 183.881 145.209 183.528 145.355C182.822 145.659 182.145 146.026 181.505 146.453C180.853 146.88 180.235 147.369 179.507 147.791C178.779 148.2 177.995 148.501 177.18 148.685C176.37 148.877 175.539 148.961 174.707 148.934C173.837 148.935 172.978 148.727 172.204 148.327C171.991 148.197 171.801 148.032 171.641 147.84C171.498 147.664 171.41 147.536 171.285 147.393C171.05 147.123 170.779 146.887 170.478 146.693C169.817 146.309 169.119 145.992 168.395 145.748C167.613 145.5 166.864 145.16 166.163 144.736C165.807 144.496 165.495 144.197 165.239 143.854C165.113 143.691 165 143.536 164.879 143.393C164.82 143.319 164.757 143.255 164.693 143.183C164.624 143.101 164.544 143.018 164.485 142.936C164.014 142.283 163.582 141.604 163.191 140.901C162.795 140.209 162.401 139.521 162.023 138.82L162.138 138.905L161.123 138.683C160.773 138.624 160.429 138.53 160.096 138.403C159.43 138.124 158.845 137.682 158.396 137.116C158.15 136.833 157.981 136.492 157.906 136.125C157.877 135.931 157.889 135.734 157.942 135.546C157.995 135.357 158.086 135.182 158.212 135.032C158.451 134.75 158.744 134.518 159.074 134.349C159.404 134.181 159.764 134.079 160.133 134.051C160.49 134.03 160.848 134.045 161.202 134.095L162.235 134.169C162.924 134.213 163.614 134.245 164.303 134.266C165.682 134.308 167.062 134.299 168.432 134.213C169.793 134.143 171.145 133.953 172.472 133.647C173.114 133.495 173.736 133.267 174.325 132.969C174.601 132.825 174.858 132.647 175.089 132.439C175.322 132.226 175.533 131.991 175.72 131.737C175.876 131.56 175.973 131.339 175.999 131.105C175.99 131.054 175.982 131.035 175.917 130.979C175.82 130.917 175.715 130.87 175.604 130.839C174.988 130.715 174.353 130.706 173.734 130.814C173.417 130.858 173.105 130.927 172.799 131.019C172.674 131.056 172.553 131.107 172.44 131.171L172.334 131.24C172.287 131.272 172.24 131.298 172.193 131.324C172.102 131.375 172.007 131.421 171.91 131.461C171.549 131.605 171.171 131.703 170.785 131.753C170.599 131.78 170.415 131.798 170.231 131.811C170.019 131.83 169.804 131.822 169.593 131.787C169.147 131.712 168.735 131.503 168.409 131.189C168.1 130.879 167.875 130.494 167.757 130.071C167.55 129.261 167.659 128.403 168.061 127.671C168.261 127.262 168.577 126.922 168.969 126.691C169.099 126.622 169.241 126.576 169.387 126.556C169.473 126.544 169.56 126.544 169.646 126.554C169.69 126.559 169.734 126.567 169.778 126.578L169.834 126.592L169.84 126.592C169.941 126.601 170.042 126.595 170.141 126.572C170.775 126.427 171.393 126.219 171.986 125.952C172.298 125.82 172.608 125.681 172.918 125.536L173.381 125.317C173.547 125.238 173.716 125.163 173.888 125.093C174.574 124.818 175.296 124.64 176.032 124.565C176.76 124.5 177.493 124.525 178.215 124.641C178.92 124.737 179.618 124.879 180.305 125.064C181.69 125.429 183.006 126.015 184.203 126.799C184.796 127.197 185.352 127.648 185.863 128.148C186.356 128.602 186.884 129.017 187.44 129.39C189.816 130.774 192.559 131.399 195.3 131.181L195.305 131.181C195.317 131.18 195.33 131.184 195.34 131.192C195.349 131.201 195.355 131.212 195.357 131.225C195.358 131.238 195.354 131.25 195.346 131.26C195.338 131.27 195.327 131.277 195.314 131.279C192.512 131.709 189.645 131.22 187.143 129.885C186.531 129.515 185.949 129.098 185.403 128.636C183.89 127.293 182.062 126.354 180.089 125.905C179.434 125.747 178.77 125.631 178.1 125.558C177.45 125.47 176.791 125.464 176.14 125.541C175.497 125.617 174.867 125.781 174.269 126.028C174.12 126.091 173.974 126.158 173.829 126.229L173.356 126.461C173.039 126.613 172.719 126.76 172.396 126.903C171.731 127.216 171.032 127.454 170.314 127.613C170.074 127.664 169.825 127.664 169.584 127.614L169.527 127.601C169.508 127.596 169.523 127.6 169.519 127.599L169.524 127.6C169.527 127.601 169.528 127.6 169.524 127.6C169.498 127.605 169.474 127.614 169.452 127.627C169.251 127.763 169.091 127.949 168.988 128.168C168.714 128.661 168.635 129.239 168.765 129.788C168.833 130.036 168.96 130.264 169.135 130.453C169.309 130.625 169.532 130.741 169.773 130.785C169.904 130.809 170.037 130.815 170.17 130.803C170.331 130.794 170.492 130.78 170.65 130.76C170.952 130.727 171.249 130.656 171.534 130.549C171.598 130.525 171.66 130.496 171.72 130.463C171.748 130.449 171.776 130.433 171.803 130.415L171.915 130.345C172.102 130.236 172.302 130.152 172.51 130.093C172.869 129.989 173.235 129.914 173.605 129.868C174.356 129.75 175.122 129.779 175.862 129.954C176.085 130.018 176.294 130.121 176.481 130.258C176.598 130.349 176.695 130.461 176.767 130.59C176.839 130.719 176.885 130.861 176.9 131.007C176.92 131.26 176.871 131.513 176.758 131.74C176.672 131.927 176.565 132.102 176.438 132.264C176.21 132.565 175.951 132.841 175.665 133.086C175.374 133.335 175.054 133.545 174.711 133.713C174.055 134.026 173.365 134.259 172.654 134.409C171.273 134.693 169.868 134.841 168.459 134.85C167.061 134.88 165.668 134.832 164.28 134.744C163.587 134.698 162.894 134.641 162.202 134.572L161.166 134.461C160.835 134.41 160.499 134.391 160.164 134.404C159.841 134.425 159.525 134.509 159.234 134.651C158.943 134.794 158.683 134.993 158.468 135.236C158.369 135.35 158.295 135.484 158.251 135.63C158.208 135.775 158.196 135.928 158.216 136.078C158.28 136.392 158.423 136.685 158.631 136.929C159.045 137.456 159.59 137.864 160.212 138.114C160.528 138.231 160.855 138.317 161.188 138.37L162.208 138.568C162.231 138.573 162.253 138.582 162.272 138.596C162.292 138.609 162.308 138.627 162.32 138.648L162.323 138.653C163.086 140.029 163.943 141.35 164.888 142.607C164.948 142.683 165.011 142.739 165.071 142.807C165.142 142.88 165.222 142.955 165.29 143.033C165.432 143.187 165.56 143.347 165.683 143.493C165.914 143.777 166.191 144.021 166.503 144.212C167.178 144.578 167.893 144.864 168.635 145.064C169.426 145.292 170.19 145.605 170.913 145.999C171.285 146.227 171.623 146.506 171.917 146.829C172.057 146.981 172.202 147.175 172.314 147.302C172.413 147.411 172.527 147.504 172.654 147.579C173.302 147.896 174.015 148.057 174.737 148.05C175.493 148.074 176.25 148.003 176.988 147.84C177.725 147.683 178.435 147.42 179.096 147.059C179.744 146.69 180.393 146.218 181.076 145.788C181.767 145.35 182.496 144.976 183.256 144.671C183.642 144.53 184.036 144.412 184.436 144.317L185.036 144.181L185.645 144.103C187.258 143.939 188.888 144.061 190.459 144.463C192.007 144.854 193.515 145.39 194.963 146.062C194.975 146.067 194.984 146.077 194.989 146.088C194.994 146.1 194.994 146.113 194.99 146.125C194.985 146.137 194.976 146.146 194.965 146.152C194.953 146.157 194.94 146.158 194.928 146.154L194.926 146.153Z" fill="black"/>
<path d="M162.172 138.737C163.131 138.655 164.091 138.616 165.051 138.584C166.01 138.548 166.97 138.543 167.929 138.538L169.369 138.548C169.864 138.548 170.356 138.616 170.832 138.75C171.743 139.073 172.632 139.458 173.492 139.901C173.029 139.768 172.575 139.611 172.116 139.467C171.674 139.297 171.22 139.157 170.759 139.048C170.302 138.953 169.835 138.912 169.369 138.926L167.929 138.936C166.97 138.931 166.01 138.926 165.051 138.889C164.091 138.858 163.131 138.819 162.172 138.737Z" fill="black"/>
<path d="M162.659 139.594C163.304 140.091 163.921 140.621 164.533 141.157C164.85 141.414 165.131 141.718 165.44 141.932C165.751 142.156 166.1 142.322 166.469 142.423C166.826 142.53 167.238 142.546 167.645 142.622C168.05 142.689 168.451 142.776 168.847 142.884C169.657 143.054 170.41 143.429 171.034 143.973C170.699 143.75 170.331 143.581 169.943 143.472C169.561 143.35 169.172 143.253 168.778 143.183C168.382 143.115 167.987 143.044 167.588 142.995C167.176 142.956 166.767 142.893 166.362 142.807C165.948 142.689 165.56 142.495 165.217 142.235C164.9 141.968 164.601 141.681 164.321 141.376C163.755 140.797 163.193 140.212 162.659 139.594Z" fill="black"/>
<path d="M153.59 126.841C153.272 126.197 152.884 125.591 152.432 125.032L152.508 125.082C151.752 124.963 151.048 124.625 150.482 124.11C150.187 123.812 150.005 123.42 149.968 123.002C149.95 122.795 149.959 122.586 149.996 122.382C150.046 122.186 150.107 121.994 150.179 121.806C150.524 121.071 151.131 120.492 151.882 120.183C152.258 120.004 152.666 119.906 153.082 119.895C153.53 119.893 153.967 120.03 154.333 120.288L153.685 120.495C153.784 120.227 153.919 119.974 154.087 119.742C154.247 119.516 154.434 119.31 154.644 119.129C155.068 118.766 155.571 118.509 156.114 118.377C156.637 118.252 157.179 118.224 157.713 118.294L158.094 118.343C158.242 118.365 158.388 118.401 158.53 118.451C158.793 118.541 159.045 118.66 159.282 118.806C160.175 119.383 160.889 120.198 161.344 121.158C161.79 122.068 162.116 123.032 162.311 124.026L161.381 124.083C161.461 123.451 161.652 122.837 161.944 122.27C162.235 121.686 162.668 121.184 163.204 120.812C163.752 120.454 164.389 120.256 165.043 120.242C165.2 120.236 165.356 120.24 165.512 120.256L165.745 120.271C165.836 120.275 165.926 120.289 166.014 120.315C166.329 120.408 166.626 120.553 166.893 120.743C167.853 121.497 168.562 122.523 168.928 123.687C169.315 124.789 169.566 125.934 169.675 127.096C169.419 125.975 169.052 124.883 168.58 123.834C168.149 122.812 167.441 121.931 166.535 121.292C166.321 121.16 166.088 121.061 165.845 120.998C165.793 120.986 165.739 120.981 165.686 120.983L165.485 120.982C164.843 120.949 164.208 121.131 163.68 121.497C163.285 121.826 162.96 122.232 162.726 122.69C162.492 123.148 162.354 123.648 162.319 124.161L162.319 124.165C162.307 124.276 162.256 124.379 162.175 124.456C162.094 124.533 161.988 124.579 161.877 124.585C161.765 124.592 161.655 124.558 161.566 124.491C161.476 124.424 161.414 124.327 161.389 124.218C161.201 123.312 160.896 122.435 160.482 121.607C160.095 120.811 159.507 120.131 158.775 119.633C158.601 119.522 158.415 119.431 158.22 119.362C158.134 119.329 158.045 119.306 157.953 119.291L157.615 119.244C157.186 119.182 156.751 119.196 156.327 119.285C155.922 119.37 155.542 119.549 155.218 119.807C154.902 120.064 154.651 120.392 154.485 120.765L154.465 120.812C154.423 120.911 154.343 120.99 154.242 121.03C154.142 121.071 154.03 121.07 153.93 121.027C153.897 121.013 153.865 120.994 153.837 120.972C153.594 120.807 153.312 120.711 153.02 120.692C152.727 120.674 152.435 120.734 152.174 120.867C151.566 121.082 151.056 121.51 150.739 122.072C150.575 122.335 150.495 122.642 150.51 122.952C150.526 123.262 150.636 123.56 150.826 123.805C151.293 124.308 151.894 124.666 152.559 124.837L152.575 124.842C152.6 124.85 152.621 124.865 152.635 124.887C153.041 125.492 153.363 126.149 153.59 126.841Z" fill="black"/>
<path d="M150.265 126.506C150.001 125.962 149.532 125.545 148.961 125.346C148.406 125.187 147.813 125.232 147.288 125.472C147.036 125.55 146.809 125.694 146.631 125.89C146.454 126.086 146.333 126.326 146.281 126.585C146.257 127.127 146.405 127.663 146.703 128.116C147.003 128.617 147.36 129.081 147.768 129.5C147.866 129.609 147.971 129.708 148.073 129.809L148.407 130.101C148.646 130.307 148.876 130.517 149.105 130.728C150.019 131.574 150.873 132.462 151.725 133.363C151.789 133.43 151.831 133.516 151.846 133.607L151.851 133.639C151.907 133.925 152.001 134.203 152.129 134.465C152.399 135.028 152.783 135.529 153.256 135.936C153.496 136.154 153.736 136.299 154.058 136.546C154.647 137.008 155.144 137.576 155.523 138.222C155.905 138.856 156.187 139.544 156.361 140.264L156.339 140.193C156.563 140.815 156.985 141.346 157.54 141.706C158.132 142.052 158.804 142.236 159.49 142.242C160.209 142.257 160.928 142.183 161.629 142.02C162.345 141.864 163.049 141.651 163.731 141.382C163.09 141.758 162.413 142.069 161.709 142.309C160.995 142.56 160.249 142.712 159.494 142.762C158.7 142.819 157.905 142.661 157.193 142.304C156.833 142.105 156.51 141.845 156.237 141.537C155.974 141.227 155.754 140.882 155.584 140.512L155.575 140.489L155.561 140.441C155.379 139.824 155.11 139.237 154.762 138.696C154.417 138.161 153.983 137.689 153.479 137.301C153.253 137.128 152.902 136.91 152.627 136.666C152.338 136.423 152.075 136.15 151.842 135.853C151.605 135.554 151.403 135.229 151.24 134.884C151.067 134.524 150.948 134.141 150.886 133.746L151.012 134.022C150.187 133.125 149.335 132.24 148.481 131.376C148.265 131.162 148.049 130.951 147.829 130.747L147.48 130.419C147.367 130.301 147.253 130.184 147.149 130.061C146.723 129.574 146.356 129.037 146.058 128.463C145.71 127.86 145.578 127.156 145.685 126.468C145.723 126.287 145.791 126.114 145.886 125.955C145.988 125.806 146.104 125.665 146.231 125.537L146.659 125.242L147.119 125.054C147.748 124.831 148.437 124.851 149.051 125.109C149.339 125.246 149.595 125.441 149.804 125.681C150.013 125.921 150.17 126.202 150.265 126.506Z" fill="black"/>
<path d="M151.369 133.693C151.218 133.148 151.229 132.571 151.399 132.031C151.48 131.75 151.625 131.491 151.822 131.273C151.918 131.162 152.038 131.072 152.171 131.01C152.305 130.948 152.45 130.915 152.598 130.913C152.379 131.05 152.197 131.239 152.069 131.463C151.944 131.68 151.847 131.911 151.779 132.152C151.621 132.639 151.525 133.155 151.369 133.693Z" fill="black"/>
<path d="M152.532 124.96C152.871 124.877 153.148 124.819 153.442 124.761C153.749 124.692 154.062 124.652 154.376 124.64C154.163 124.91 153.857 125.093 153.517 125.152C153.349 125.192 153.174 125.195 153.004 125.162C152.834 125.129 152.674 125.06 152.532 124.96Z" fill="black"/>
<path d="M154.332 120.629C154.326 121.057 154.382 121.483 154.499 121.895C154.602 122.306 154.821 122.679 155.131 122.969C155.294 123.106 155.484 123.209 155.689 123.271C155.894 123.333 156.109 123.353 156.321 123.328C156.543 123.31 156.762 123.274 156.977 123.22L157.611 122.991L156.996 123.279C156.781 123.354 156.559 123.412 156.334 123.451C156.1 123.497 155.86 123.495 155.627 123.446C155.394 123.396 155.174 123.3 154.979 123.163C154.598 122.868 154.31 122.47 154.149 122.015C153.978 121.572 153.874 121.107 153.839 120.633C153.836 120.6 153.839 120.568 153.849 120.537C153.859 120.505 153.875 120.476 153.896 120.451C153.917 120.426 153.943 120.406 153.972 120.391C154.001 120.376 154.033 120.367 154.066 120.365C154.098 120.362 154.131 120.366 154.162 120.376C154.193 120.387 154.222 120.403 154.247 120.424C154.271 120.446 154.291 120.472 154.306 120.501C154.321 120.53 154.329 120.562 154.331 120.595C154.332 120.602 154.332 120.61 154.332 120.617L154.332 120.629Z" fill="black"/>
<path d="M156.317 123.411C156.659 123.932 156.961 124.478 157.221 125.044C157.512 125.614 157.711 126.226 157.81 126.858C157.838 126.976 157.894 127.085 157.974 127.176C158.053 127.267 158.153 127.338 158.266 127.382C158.524 127.511 158.8 127.6 159.085 127.644C159.376 127.698 159.675 127.7 159.967 127.652C160.269 127.626 160.549 127.485 160.749 127.258C160.673 127.401 160.569 127.527 160.443 127.627C160.316 127.728 160.17 127.801 160.014 127.842C159.702 127.934 159.377 127.97 159.053 127.949C158.722 127.935 158.397 127.856 158.095 127.719C157.919 127.65 157.764 127.537 157.645 127.391C157.525 127.245 157.445 127.071 157.413 126.885C157.313 126.295 157.154 125.717 156.938 125.159L156.317 123.411Z" fill="black"/>
<path d="M162.334 124.044C162.443 124.813 162.687 125.557 163.056 126.241C163.148 126.404 163.253 126.56 163.369 126.708C163.517 126.885 163.648 127.076 163.761 127.278C163.874 127.482 163.964 127.698 164.03 127.922C164.098 128.158 164.13 128.354 164.177 128.549C164.2 128.723 164.248 128.892 164.318 129.053C164.415 129.198 164.536 129.325 164.677 129.427C164.816 129.536 164.975 129.616 165.146 129.663C165.316 129.71 165.494 129.722 165.669 129.7C166.038 129.623 166.37 129.423 166.61 129.132C166.88 128.833 167.11 128.5 167.294 128.141L167.283 128.173C167.406 127.593 167.488 127.006 167.529 126.414C167.582 125.821 167.543 125.222 167.411 124.641C167.586 125.217 167.669 125.816 167.659 126.418C167.661 127.021 167.621 127.624 167.539 128.221C167.538 128.23 167.535 128.239 167.531 128.247L167.529 128.253C167.36 128.65 167.14 129.024 166.874 129.364C166.6 129.739 166.206 130.01 165.758 130.132C165.522 130.181 165.278 130.183 165.041 130.138C164.804 130.092 164.579 130 164.378 129.867C164.171 129.738 163.989 129.573 163.841 129.379C163.76 129.271 163.702 129.149 163.668 129.019L163.576 128.712C163.492 128.334 163.348 127.972 163.147 127.642C163.045 127.486 162.928 127.34 162.798 127.207C162.643 127.038 162.501 126.857 162.374 126.667C161.891 125.913 161.548 125.079 161.362 124.203C161.347 124.14 161.345 124.075 161.356 124.011C161.367 123.947 161.39 123.886 161.424 123.831C161.459 123.776 161.504 123.729 161.556 123.691C161.609 123.653 161.669 123.627 161.732 123.612C161.795 123.598 161.861 123.596 161.924 123.606C161.988 123.617 162.049 123.64 162.104 123.675C162.159 123.709 162.207 123.754 162.245 123.807C162.282 123.86 162.309 123.919 162.323 123.982C162.326 123.994 162.328 124.006 162.33 124.018L162.334 124.044Z" fill="black"/>
<path d="M161.425 132.674C161.445 132.674 161.46 132.679 161.48 132.679L161.525 132.708L161.425 132.674Z" fill="black"/>
<path d="M171.425 132.009C162.958 130.723 154.98 127.442 152.999 126.59C152.656 126.44 152.289 126.352 151.915 126.329C150.111 126.235 149.49 126.822 149.322 127.428C149.247 127.72 149.269 128.029 149.383 128.309C149.498 128.588 149.699 128.823 149.958 128.979L158.765 134.516L158.769 134.511C159.213 133.978 159.727 133.507 160.297 133.112C160.089 133.55 159.833 133.963 159.533 134.344C160.353 134.119 161.219 134.122 162.037 134.354C172.233 135.319 174.795 133.191 174.795 133.191C173.701 132.171 171.425 132.009 171.425 132.009ZM163.988 131.166L166.058 132.674L161.312 131.964L157.04 129.102L163.988 131.166ZM166.649 133.723C164.885 133.56 163.126 133.358 161.366 133.161C161.332 133.155 161.299 133.144 161.268 133.127C159.642 132.147 158.02 131.157 156.414 130.142L154.004 128.61C153.216 128.083 152.412 127.575 151.629 127.033C152.471 127.477 153.299 127.945 154.132 128.398L156.611 129.812C158.247 130.743 159.863 131.708 161.48 132.679C163.214 132.891 164.959 133.107 166.694 133.354C168.443 133.6 170.197 133.856 171.942 134.161C170.173 134.053 168.409 133.89 166.649 133.723H166.649Z" fill="black"/>
<path d="M161.525 132.708L161.425 132.674C161.445 132.674 161.46 132.679 161.48 132.679L161.525 132.708Z" fill="white"/>
<path d="M101.49 62.0449C101.49 62.0449 100.225 61.286 99.0436 62.6352C99.0436 62.6352 96.9346 59.6398 87.9925 62.2337C87.9925 62.2337 89.1735 64.4903 90.0171 64.4903C90.8607 64.4903 88.4143 68.3693 86.1366 68.2006C86.1366 68.2006 82.2561 73.8504 85.2087 79.3315C88.1188 84.7337 90.2094 86.4497 93.0959 82.9456C93.1844 82.8369 93.2832 82.7369 93.3909 82.6471C94.221 81.9629 97.896 79.1177 99.1985 81.2392C99.4759 81.7105 99.5553 82.2725 99.4193 82.8021C98.8248 85.291 96.0447 94.4582 87.9925 90.7996C87.9925 90.7996 78.6087 87.2821 80.822 78.9492C81.0587 78.1017 81.4019 77.2876 81.8435 76.5264C82.2692 75.7487 82.5316 74.8924 82.6145 74.0098C82.6974 73.1273 82.5992 72.2371 82.3258 71.3938C81.9866 70.1916 81.2213 69.1539 80.1729 68.4742C79.1564 67.8405 77.8165 67.5571 76.8014 69.3293C76.3813 70.0666 76.1599 70.9002 76.1587 71.7486C76.1568 72.5252 76.3013 73.4777 76.9414 73.9347L76.1587 75.4525C75.733 74.5868 75.1887 73.7845 74.5414 73.069C73.4574 71.9717 72.7611 70.5508 72.558 69.0221C72.2715 66.597 72.6165 62.976 75.5073 58.7563C75.5073 58.7563 79.3878 50.9984 86.6427 51.1671C93.8977 51.3357 100.14 53.2751 101.49 62.0449Z" fill="black"/>
<path d="M89.3425 72.1643C90.6027 71.8762 91.8975 71.7696 93.1879 71.8476C93.8378 71.8799 94.4828 71.9777 95.1131 72.1395C95.7563 72.2774 96.3541 72.5761 96.8505 73.0075C96.2774 72.7415 95.6653 72.5691 95.0375 72.4971C94.4173 72.408 93.7915 72.3432 93.1603 72.3149C91.8989 72.2368 90.6308 72.2308 89.3425 72.1643Z" fill="black"/>
<path d="M101.49 72.0435C101.028 72.1837 100.601 72.4189 100.236 72.734C100.063 72.8767 99.9221 73.0543 99.8224 73.2552C99.7227 73.4561 99.6664 73.6757 99.6573 73.8998C99.6913 74.3595 99.8119 74.8087 100.013 75.2236L100.564 76.5792C100.976 77.4965 101.215 78.4816 101.27 79.4854C101.269 79.7498 101.22 80.012 101.126 80.2592C101.026 80.5094 100.86 80.7287 100.648 80.895C100.216 81.1668 99.7062 81.2879 99.1982 81.2393C99.6745 81.1987 100.128 81.0174 100.501 80.7185C100.654 80.5553 100.769 80.3606 100.839 80.1481C100.909 79.9356 100.931 79.7103 100.904 79.4883C100.868 79.0188 100.772 78.5557 100.62 78.11C100.478 77.6534 100.309 77.2011 100.128 76.7504C99.955 76.2964 99.7675 75.8449 99.5987 75.38C99.518 75.1452 99.436 74.9112 99.3726 74.6637C99.2938 74.4078 99.267 74.1388 99.2941 73.8724C99.3223 73.6075 99.4086 73.352 99.547 73.1243C99.6853 72.8966 99.8722 72.7022 100.094 72.555C100.512 72.2758 100.99 72.1005 101.49 72.0435Z" fill="black"/>
<path d="M101.489 62.0453C101.647 62.9905 101.765 63.9408 101.842 64.8962C101.93 65.85 101.984 66.8066 102.005 67.7661C102.02 68.7255 102.005 69.6866 101.93 70.6485C101.886 71.6289 101.667 72.5936 101.283 73.4969C101.278 73.5081 101.271 73.5185 101.262 73.5277C100.966 73.8463 100.688 74.1814 100.43 74.5313C100.302 74.7065 100.187 74.8916 100.089 75.0849C99.9787 75.2732 99.9347 75.4927 99.9636 75.7087C99.8959 75.4914 99.9081 75.257 99.9981 75.0479C100.076 74.8369 100.17 74.6325 100.28 74.4366C100.501 74.0461 100.755 73.676 101.041 73.3307L101.02 73.3613C101.184 72.9299 101.293 72.4798 101.344 72.0214C101.417 71.5589 101.447 71.0867 101.482 70.6161C101.538 69.6714 101.547 68.7211 101.553 67.7703C101.553 65.8672 101.511 63.9605 101.489 62.0453Z" fill="black"/>
<path d="M96.4283 78.5739C96.3393 78.7569 96.2674 78.9478 96.2134 79.144C96.1585 79.3253 96.1465 79.5169 96.1783 79.7036C96.2045 79.8887 96.2854 80.0616 96.4106 80.2004C96.5431 80.3536 96.6903 80.4935 96.8501 80.618C96.7479 80.5877 96.6475 80.5517 96.5493 80.5102C96.4538 80.4577 96.3637 80.3957 96.2805 80.3252C96.1065 80.1745 95.989 79.969 95.9474 79.7426C95.9179 79.5183 95.9514 79.2903 96.0443 79.084C96.131 78.8865 96.2624 78.7119 96.4283 78.5739Z" fill="black"/>
<path d="M76.9407 73.9357C77.2327 74.302 77.4656 74.7117 77.6311 75.1499C77.7199 75.3736 77.784 75.6062 77.8225 75.8437C77.8432 75.9682 77.8515 76.0945 77.8471 76.2206L77.8447 76.3176L77.8504 76.3703C77.8483 76.4046 77.8558 76.4388 77.8721 76.4691C77.9445 76.6233 78.0723 76.7447 78.2301 76.809C78.4174 76.9047 78.6148 76.9795 78.8186 77.0319C79.2519 77.1487 79.6977 77.2133 80.1463 77.2244C79.7032 77.398 79.2229 77.4554 78.7513 77.3912C78.5051 77.3662 78.2641 77.3044 78.0362 77.2081C77.9022 77.1561 77.7797 77.0781 77.676 76.9786C77.5722 76.8791 77.4891 76.76 77.4316 76.6283C77.4013 76.5541 77.3865 76.4745 77.3881 76.3944L77.3864 76.276L77.39 76.2022C77.3953 76.1002 77.393 75.9979 77.3832 75.8962C77.3645 75.6802 77.3307 75.4657 77.2822 75.2544C77.1865 74.8211 77.0606 74.3855 76.9407 73.9357Z" fill="black"/>
<path d="M76.1585 75.4525C75.9703 76.1345 75.7048 76.7929 75.3673 77.4148C75.037 78.0459 74.6382 78.6387 74.1782 79.1827C73.7179 79.7368 73.172 80.2139 72.5611 80.5959C71.9486 80.9754 71.2475 81.1886 70.5273 81.2141C71.1865 81.0162 71.8058 80.7043 72.3571 80.2924C72.8966 79.8776 73.3878 79.4035 73.8214 78.8791C74.2669 78.3554 74.6787 77.804 75.0544 77.2283C75.4326 76.6499 75.8082 76.0634 76.1585 75.4525Z" fill="black"/>
<path d="M82.3398 95.1861C82.8729 94.9525 83.377 94.6576 83.8418 94.3075C84.3031 93.9632 84.7406 93.5883 85.1516 93.1853C85.5752 92.7942 85.9551 92.3569 86.3497 91.9289L86.9241 91.266C87.1112 91.0398 87.2977 90.8119 87.5035 90.5935C87.386 90.867 87.2494 91.1312 87.1132 91.3971C86.9589 91.6509 86.8072 91.9086 86.6376 92.1543C86.2955 92.6467 85.9066 93.105 85.4763 93.5226C85.0439 93.9437 84.5614 94.31 84.0396 94.6133C83.5222 94.9272 82.9418 95.1229 82.3398 95.1861Z" fill="black"/>
<path d="M73.9008 79.0314C73.481 78.4096 72.9617 77.861 72.3638 77.4076C72.2394 77.2977 72.0886 77.2218 71.9261 77.1874C71.7636 77.1529 71.595 77.1611 71.4366 77.211C71.1568 77.4011 70.956 77.6866 70.8718 78.0141C70.7566 78.3633 70.6735 78.7223 70.6237 79.0866C70.5987 79.2679 70.5764 79.4564 70.56 79.6307C70.561 79.7967 70.5756 79.9916 70.5922 80.173C70.6648 80.9166 70.8027 81.6524 71.0043 82.3718C71.3757 83.8357 71.9524 85.2397 72.7175 86.542C73.4927 87.8437 74.4201 89.0487 75.48 90.1314C76.0115 90.6688 76.5639 91.1861 77.1245 91.6903C77.7068 92.1705 78.2631 92.6862 78.8692 93.1271C79.1616 93.3631 79.4839 93.5547 79.7893 93.7707C80.1125 93.9565 80.4228 94.1675 80.7595 94.3253C81.4101 94.6786 82.1022 94.9497 82.8197 95.1323C84.2528 95.5123 85.7755 95.3526 87.0984 94.6834C88.4278 93.9741 89.5444 92.924 90.3337 91.6409C90.3365 91.6353 90.3415 91.6312 90.3474 91.6293C90.3533 91.6274 90.3598 91.6279 90.3653 91.6308C90.3704 91.6339 90.3743 91.6388 90.3761 91.6446C90.378 91.6503 90.3777 91.6566 90.3754 91.6622C89.6889 93.0555 88.61 94.2178 87.2713 95.0063C86.5858 95.395 85.8316 95.6478 85.0501 95.7508C84.2662 95.8434 83.472 95.7929 82.7061 95.6018C81.9457 95.4213 81.2138 95.1369 80.531 94.7568C80.1824 94.5837 79.8659 94.3596 79.5352 94.1595C79.2248 93.9308 78.8963 93.725 78.6018 93.4773C77.9845 93.0138 77.444 92.4724 76.8727 91.9638C76.5814 91.716 76.3345 91.4203 76.067 91.1478C75.8093 90.8653 75.5303 90.6036 75.291 90.3049C74.2922 89.1509 73.3852 87.9206 72.5784 86.6253C71.7567 85.3303 71.1023 83.9365 70.6307 82.4772C70.4005 81.7389 70.2502 80.978 70.1823 80.2076C70.1694 80.0102 70.1577 79.8261 70.1621 79.6121C70.1844 79.4092 70.2119 79.2205 70.243 79.0263C70.3051 78.6389 70.4028 78.2581 70.5348 77.8887C70.5943 77.6848 70.6938 77.4948 70.8275 77.3298C70.9611 77.1648 71.1263 77.028 71.3134 76.9274C71.5238 76.845 71.7567 76.8402 71.9702 76.9141C72.1644 76.9805 72.3457 77.0798 72.5063 77.2075C73.0958 77.7096 73.5829 78.3206 73.9409 79.0071C73.9424 79.0098 73.9434 79.0127 73.9438 79.0158C73.9442 79.0188 73.9439 79.0219 73.9431 79.0249C73.9423 79.0278 73.9409 79.0306 73.939 79.033C73.9371 79.0355 73.9348 79.0375 73.9321 79.039C73.9268 79.0417 73.9208 79.0424 73.915 79.041C73.9093 79.0396 73.9042 79.0362 73.9008 79.0314Z" fill="black"/>
<path d="M75.3266 77.046C74.5734 76.5824 73.7333 76.2778 72.8579 76.151C71.9955 75.9935 71.1052 76.1529 70.3512 76.5998C69.9956 76.8468 69.6966 77.1665 69.474 77.5377L68.7087 78.6366C68.2021 79.3834 67.6349 80.0872 67.0127 80.7409C66.9982 80.7553 66.9809 80.7664 66.9618 80.7736C66.9428 80.7808 66.9224 80.7839 66.902 80.7828L66.8907 80.7821C63.7381 80.5954 60.5747 80.5206 57.4197 80.5419C55.8418 80.555 54.2656 80.6183 52.6985 80.7413C51.1434 80.8273 49.6037 81.0945 48.1106 81.5374L48.0842 81.5446L48.0481 81.5523C47.2217 81.7637 46.4346 82.1062 45.7167 82.5667C45.3432 82.7928 44.9839 83.0414 44.6406 83.3111L44.1205 83.7112C43.9527 83.8518 43.7944 84.005 43.6309 84.1512C42.3283 85.3411 41.171 86.6808 40.1832 88.1424C38.2005 91.0902 36.5799 94.2657 35.3565 97.6006C35.0541 98.4374 34.7229 99.2635 34.4439 100.109L33.6454 102.658C33.3752 103.497 33.1335 104.387 32.8188 105.237C32.5128 106.096 32.1547 106.926 31.8119 107.75L30.7565 110.227L30.2069 111.461C30.0196 111.888 29.8109 112.305 29.5814 112.711C29.5348 112.786 29.4819 112.858 29.4233 112.925C29.4568 112.926 29.4596 112.849 29.4615 112.88C29.4562 112.928 29.4582 112.977 29.4675 113.024C29.5027 113.199 29.5628 113.367 29.6461 113.524C29.8302 113.876 30.0761 114.191 30.372 114.456C30.9762 114.999 31.7319 115.344 32.5379 115.446L32.2211 116.214C31.724 115.826 31.2535 115.405 30.8127 114.954C30.5712 114.711 30.3606 114.439 30.1857 114.144C30.133 114.049 30.0911 113.947 30.0609 113.842C30.045 113.773 30.0342 113.702 30.0287 113.631C30.0287 113.539 30.0445 113.446 30.0755 113.359C30.1109 113.265 30.1677 113.18 30.2414 113.112C30.2757 113.08 30.3117 113.05 30.3493 113.022C30.382 113.003 30.4137 112.988 30.4469 112.973C30.5578 112.922 30.6762 112.889 30.7975 112.875C31.1443 112.85 31.4928 112.875 31.8325 112.948C32.15 113.006 32.4539 113.083 32.7567 113.162L33.6592 113.449L34.5322 113.799C36.8125 114.827 38.8349 116.193 40.9402 117.394C43.0318 118.615 45.195 119.709 47.4181 120.67C49.6485 121.62 51.9282 122.449 54.2473 123.155L54.25 123.156C54.3136 123.176 54.3686 123.217 54.4058 123.272C54.4431 123.327 54.4604 123.393 54.4549 123.459C54.254 125.724 54.1727 127.998 54.2111 130.272C54.2269 131.403 54.3235 132.53 54.5004 133.647C54.5844 134.192 54.7411 134.723 54.9661 135.227C55.0708 135.453 55.2275 135.652 55.4235 135.807C55.4736 135.829 55.5223 135.852 55.5708 135.878C55.6221 135.894 55.6767 135.893 55.7291 135.905C55.847 135.919 56.0078 135.911 56.1451 135.914L69.8545 135.952C74.4243 135.974 78.9939 135.949 83.5636 135.944L97.2728 135.898L97.1147 135.968C98.0481 134.985 99.0698 134.09 100.167 133.294C101.261 132.486 102.451 131.814 103.708 131.294C104.978 130.759 106.343 130.485 107.722 130.488C108.421 130.501 109.117 130.602 109.791 130.788L111.69 131.425C112.325 131.631 112.961 131.831 113.599 132.017C114.212 132.223 114.847 132.36 115.491 132.425C116.206 132.506 116.898 132.73 117.524 133.085C117.853 133.261 118.151 133.49 118.404 133.764C118.546 133.916 118.656 134.095 118.727 134.29C118.799 134.485 118.83 134.692 118.819 134.899C118.837 135.252 118.825 135.606 118.783 135.957C118.74 136.365 118.567 136.748 118.291 137.052C117.994 137.345 117.602 137.524 117.186 137.556C116.819 137.595 116.449 137.584 116.086 137.522C115.74 137.467 115.397 137.389 115.062 137.288L114.103 136.999C113.797 136.911 113.485 136.843 113.17 136.795C112.909 136.741 112.64 136.744 112.38 136.803L112.475 136.151C113.743 137.038 115.232 137.558 116.778 137.651C117.559 137.693 118.342 137.648 119.113 137.517C119.909 137.409 120.699 137.275 121.502 137.141C121.906 137.078 122.308 137.007 122.752 136.979C122.995 136.958 123.24 136.973 123.48 137.021C123.769 137.083 124.03 137.237 124.224 137.46C124.391 137.659 124.519 137.887 124.601 138.133C124.836 138.793 124.871 139.508 124.702 140.188C124.582 140.639 124.37 141.061 124.078 141.426C123.786 141.79 123.421 142.09 123.007 142.305C122.23 142.704 121.384 142.952 120.515 143.036L120.895 142.75C120.692 143.213 120.44 143.653 120.143 144.063C119.849 144.476 119.506 144.853 119.122 145.185C118.718 145.523 118.259 145.788 117.765 145.97C117.256 146.141 116.719 146.209 116.184 146.17L116.589 146.004C115.765 146.963 114.957 147.904 114.03 148.811C113.912 148.924 113.786 149.037 113.647 149.15C113.504 149.259 113.353 149.359 113.197 149.449C112.905 149.614 112.601 149.757 112.287 149.879C111.676 150.116 111.045 150.297 110.401 150.419C109.125 150.657 107.823 150.717 106.531 150.597C106.209 150.575 105.891 150.523 105.571 150.486L104.622 150.32L103.732 150.175L102.827 150.08C100.362 149.953 97.8908 150.033 95.4394 150.319C92.971 150.569 90.5095 150.941 88.0602 151.375C86.845 151.59 85.6413 151.876 84.4153 152.146C83.1944 152.417 81.9693 152.681 80.7409 152.929C78.283 153.42 75.8144 153.867 73.3312 154.222C68.3658 154.959 63.3558 155.355 58.3362 155.407C57.7088 155.41 57.0817 155.433 56.4544 155.419L54.5726 155.376C53.3176 155.367 52.0653 155.278 50.8128 155.204C49.5587 155.15 48.3113 155.005 47.0625 154.884C46.4353 154.814 45.821 154.776 45.1813 154.677C44.548 154.579 43.9209 154.443 43.3034 154.272C40.8095 153.599 38.5472 152.257 36.7619 150.391C34.9741 148.515 33.8436 146.109 33.5402 143.536C32.9907 138.548 32.77 133.554 32.6449 128.557C32.5358 123.56 32.5221 118.564 32.6039 113.568C32.604 113.555 32.6093 113.542 32.6187 113.533C32.628 113.524 32.6406 113.519 32.6537 113.519C32.6667 113.519 32.6792 113.524 32.6884 113.534C32.6975 113.543 32.7026 113.556 32.7025 113.569C32.7234 118.562 32.8385 123.554 33.0476 128.543C33.2687 133.527 33.5414 138.52 34.1612 143.455C34.4794 145.881 35.5777 148.138 37.2907 149.886C38.9976 151.635 41.1497 152.885 43.5149 153.502C44.1025 153.66 44.699 153.783 45.3011 153.871C45.8971 153.959 46.5314 153.995 47.1463 154.058C48.3849 154.168 49.6215 154.301 50.8652 154.343C52.1072 154.406 53.3483 154.484 54.5927 154.482L56.4578 154.508C57.0795 154.517 57.7014 154.489 58.323 154.481L60.188 154.443L62.0512 154.347C63.294 154.297 64.5333 154.188 65.7731 154.089C67.0144 154.008 68.2485 153.843 69.4864 153.723C70.7207 153.569 71.9557 153.417 73.1861 153.232C75.649 152.875 78.0981 152.427 80.5387 151.935C81.7588 151.687 82.9756 151.422 84.193 151.149C85.4061 150.88 86.634 150.586 87.8786 150.363C90.348 149.921 92.83 149.541 95.3327 149.282C97.8466 148.984 100.382 148.91 102.909 149.06L103.867 149.164L104.825 149.326L105.721 149.487C106.021 149.522 106.32 149.573 106.621 149.595C107.82 149.713 109.029 149.663 110.215 149.449C110.799 149.341 111.373 149.18 111.928 148.968C112.197 148.866 112.46 148.744 112.712 148.604C112.827 148.538 112.938 148.466 113.044 148.387C113.148 148.304 113.255 148.208 113.363 148.106C114.227 147.271 115.055 146.32 115.862 145.388C115.909 145.334 115.968 145.291 116.034 145.262C116.1 145.233 116.171 145.219 116.243 145.221L116.267 145.222C116.669 145.251 117.072 145.202 117.455 145.077C117.842 144.935 118.202 144.728 118.519 144.466C118.845 144.185 119.136 143.867 119.387 143.518C119.642 143.169 119.86 142.795 120.037 142.402L120.039 142.399C120.072 142.323 120.124 142.257 120.191 142.208C120.257 142.158 120.335 142.127 120.417 142.116C121.163 142.048 121.89 141.842 122.56 141.509C122.868 141.355 123.141 141.139 123.359 140.873C123.578 140.607 123.737 140.297 123.828 139.965C123.917 139.63 123.935 139.28 123.882 138.937C123.85 138.62 123.738 138.316 123.559 138.053C123.489 137.964 123.388 137.905 123.277 137.885C123.119 137.855 122.958 137.846 122.797 137.859C122.433 137.878 122.034 137.94 121.638 138C120.842 138.124 120.034 138.252 119.224 138.354C118.396 138.483 117.556 138.521 116.719 138.468C115.012 138.348 113.374 137.752 111.99 136.746L111.983 136.741C111.928 136.701 111.886 136.646 111.86 136.584C111.835 136.521 111.827 136.453 111.837 136.386C111.848 136.32 111.877 136.257 111.92 136.206C111.964 136.154 112.021 136.115 112.085 136.094C112.473 135.978 112.885 135.961 113.282 136.046C113.628 136.102 113.971 136.18 114.307 136.28L115.268 136.581C115.573 136.677 115.883 136.751 116.198 136.804C116.804 136.908 117.463 136.896 117.788 136.558C118.129 136.225 118.151 135.566 118.135 134.908C118.138 134.833 118.135 134.758 118.126 134.684C118.125 134.629 118.113 134.576 118.091 134.526C118.047 134.408 117.98 134.299 117.895 134.206C117.694 133.987 117.458 133.803 117.197 133.662C116.657 133.35 116.061 133.147 115.443 133.066C114.754 132.991 114.077 132.839 113.422 132.613C112.777 132.417 112.138 132.209 111.501 131.995L109.599 131.335C108.983 131.162 108.348 131.065 107.708 131.047C106.403 131.032 105.108 131.279 103.899 131.772C101.457 132.806 99.2552 134.331 97.4306 136.254L97.4238 136.261C97.404 136.281 97.3804 136.297 97.3544 136.308C97.3284 136.319 97.3005 136.324 97.2724 136.324L83.5645 136.278C78.9952 136.273 74.4258 136.248 69.8566 136.27L56.1491 136.308C56.0012 136.306 55.8751 136.317 55.7092 136.304C55.6207 136.296 55.5328 136.281 55.4465 136.26L55.2063 136.149C54.945 135.959 54.7348 135.707 54.5943 135.416C54.3433 134.88 54.166 134.312 54.0671 133.728C53.8704 132.591 53.7556 131.441 53.7235 130.287C53.6529 127.994 53.7034 125.698 53.8748 123.409L54.0824 123.713C51.7309 123.032 49.4178 122.225 47.153 121.296C44.8909 120.354 42.6877 119.276 40.5551 118.069C38.4131 116.892 36.3742 115.526 34.2018 114.561L33.378 114.235L32.5386 113.972C32.2521 113.898 31.965 113.827 31.6829 113.777C31.4266 113.722 31.1641 113.701 30.9024 113.715C30.8674 113.724 30.8062 113.731 30.8147 113.736L30.809 113.734C30.8177 113.732 30.8256 113.727 30.8315 113.721C30.8357 113.707 30.8644 113.688 30.8694 113.658C30.8843 113.542 30.8689 113.651 30.934 113.74C31.0748 113.967 31.2414 114.176 31.4305 114.364C31.8434 114.782 32.2834 115.172 32.7478 115.532L32.7518 115.535C32.8259 115.593 32.8788 115.674 32.9025 115.766C32.9261 115.857 32.9192 115.953 32.8828 116.04C32.8464 116.127 32.7825 116.199 32.7009 116.247C32.6192 116.294 32.5244 116.313 32.4309 116.301C31.4464 116.18 30.5223 115.762 29.7829 115.101C29.4088 114.767 29.0976 114.37 28.8644 113.926C28.7373 113.688 28.647 113.431 28.5968 113.165C28.564 112.993 28.5686 112.815 28.6102 112.644C28.6443 112.518 28.7077 112.4 28.7955 112.303C28.8052 112.275 28.7987 112.3 28.8304 112.243C29.024 111.909 29.2201 111.486 29.4053 111.091L29.9546 109.875L31.0179 107.415C31.3669 106.588 31.7225 105.775 32.0219 104.948C32.3334 104.12 32.5651 103.281 32.8474 102.417L33.6678 99.8451C33.9545 98.9921 34.2942 98.1561 34.6048 97.3111C35.8684 93.9233 37.5357 90.7 39.5707 87.7108C40.0893 86.966 40.6453 86.2479 41.2367 85.5593C41.8392 84.8758 42.4842 84.2308 43.1677 83.6283C43.3398 83.4783 43.5061 83.322 43.6831 83.1776L44.2327 82.7655C44.5974 82.4868 44.9786 82.2305 45.3742 81.9977C46.1719 81.4989 47.0477 81.1374 47.965 80.9282L47.9027 80.9432C49.451 80.5012 51.0459 80.2431 52.6546 80.1743C54.2431 80.0699 55.8312 80.027 57.4174 80.034C60.5906 80.0407 63.7554 80.2014 66.9156 80.4533L66.7937 80.4943C67.4122 79.8683 67.9791 79.1934 68.4888 78.4762L69.2744 77.3989C69.5216 77.0095 69.8482 76.6764 70.2327 76.4214C70.6215 76.1708 71.0643 76.016 71.5246 75.9696C71.9756 75.916 72.4318 75.925 72.8803 75.9963C73.7716 76.1446 74.623 76.4741 75.3819 76.9645C75.3928 76.9715 75.4005 76.9825 75.4034 76.9951C75.4063 77.0078 75.404 77.021 75.3972 77.032C75.3903 77.043 75.3794 77.0509 75.3667 77.0539C75.3541 77.0569 75.3408 77.0547 75.3298 77.048L75.3266 77.046Z" fill="black"/>
<path d="M52.1836 85.4023C52.798 85.5765 53.3555 85.9096 53.7998 86.3681C54.2577 86.8194 54.6239 87.355 54.8782 87.9453C55.1331 88.5322 55.2764 89.1615 55.3008 89.8009C55.313 90.1156 55.2969 90.4308 55.2526 90.7426C55.1989 91.052 55.1171 91.3558 55.0081 91.6503C54.8988 91.3456 54.8494 91.0515 54.7691 90.7641C54.6829 90.4785 54.6312 90.1942 54.5354 89.9224C54.3825 89.3826 54.1952 88.8532 53.9744 88.3374C53.7529 87.8246 53.494 87.3288 53.1996 86.854C52.8913 86.3495 52.552 85.8647 52.1836 85.4023Z" fill="black"/>
<path d="M54.3332 97.2083C54.5231 99.3949 54.6157 101.581 54.6741 103.767C54.7387 105.953 54.7456 108.138 54.7414 110.324C54.7187 112.509 54.6837 114.694 54.5913 116.879C54.505 119.064 54.3837 121.249 54.1645 123.433C53.9734 121.246 53.8802 119.06 53.8221 116.874C53.7578 114.688 53.7509 112.503 53.7564 110.318C53.7803 108.132 53.8153 105.947 53.908 103.762C53.9945 101.577 54.1152 99.3924 54.3332 97.2083Z" fill="black"/>
<path d="M99.4479 82.7632C101.253 83.892 103.024 85.0677 104.763 86.2903C105.633 86.9007 106.496 87.5222 107.352 88.1547L108.626 89.1273C108.849 89.2947 109.06 89.4788 109.255 89.678L109.558 89.9939L109.813 90.3168C110.473 91.1678 111.076 92.0622 111.616 92.994C112.16 93.9121 112.69 94.8362 113.205 95.7664C114.223 97.6352 115.272 99.483 116.35 101.31C116.89 102.224 117.44 103.133 118 104.035L118.838 105.387C119.087 105.83 119.382 106.244 119.719 106.623C120.076 106.973 120.501 107.32 120.871 107.756C121.309 108.212 121.573 108.808 121.616 109.439C121.583 110.086 121.301 110.695 120.829 111.139C120.628 111.343 120.416 111.536 120.194 111.718C119.996 111.877 119.803 112.045 119.614 112.218C119.235 112.566 118.886 112.932 118.531 113.326C118.17 113.725 117.796 114.112 117.417 114.494C116.65 115.259 115.837 115.975 114.98 116.638C114.107 117.314 113.157 117.883 112.15 118.334C111.621 118.558 111.066 118.711 110.498 118.791C109.901 118.88 109.292 118.827 108.719 118.637C108.628 118.609 108.55 118.549 108.501 118.467L108.498 118.462C108.128 117.849 107.723 117.238 107.313 116.641C106.904 116.04 106.475 115.454 106.027 114.882C105.577 114.315 105.097 113.773 104.588 113.258C104.097 112.729 103.497 112.314 102.828 112.042L102.825 112.041C102.813 112.037 102.803 112.028 102.797 112.017C102.792 112.006 102.79 111.993 102.794 111.981C102.797 111.969 102.805 111.959 102.815 111.953C102.826 111.946 102.838 111.944 102.851 111.946C103.581 112.135 104.256 112.493 104.821 112.993C105.4 113.461 105.943 113.973 106.445 114.524C107.453 115.615 108.379 116.779 109.217 118.006L108.995 117.832C109.934 118.023 110.909 117.881 111.754 117.431C112.677 116.991 113.544 116.444 114.338 115.8C115.16 115.162 115.947 114.479 116.693 113.753C117.071 113.392 117.445 113.026 117.806 112.647C118.173 112.262 118.568 111.869 118.981 111.51C119.188 111.33 119.401 111.155 119.62 110.987C119.819 110.821 120.008 110.68 120.175 110.51C120.497 110.233 120.708 109.847 120.768 109.425C120.742 108.988 120.568 108.572 120.273 108.248C119.971 107.859 119.59 107.508 119.22 107.085C119.123 106.975 119.031 106.859 118.947 106.739L118.733 106.377L118.349 105.672L117.597 104.266C117.102 103.326 116.595 102.393 116.078 101.467C115.041 99.6153 113.948 97.7947 112.764 96.0337C111.591 94.2752 110.4 92.495 109.129 90.8704L108.888 90.5701L108.637 90.3139C108.466 90.1301 108.279 89.9604 108.08 89.8066L106.841 88.8227L104.34 86.8594C102.668 85.552 101.018 84.2132 99.39 82.843C99.3804 82.8349 99.3742 82.8236 99.3727 82.8111C99.3712 82.7987 99.3744 82.7862 99.3817 82.7761C99.3891 82.766 99.4 82.759 99.4123 82.7566C99.4246 82.7542 99.4373 82.7566 99.4479 82.7632L99.4479 82.7632Z" fill="black"/>
<path d="M106.046 98.6705C105.183 101.911 104.368 105.16 103.688 108.421C103.338 110.037 103.094 111.675 102.956 113.323C102.91 114.116 102.905 114.991 102.835 115.839C102.767 116.704 102.623 117.561 102.403 118.4C101.885 120.059 101.055 121.604 99.9578 122.952C99.4508 123.628 98.9135 124.281 98.4106 124.938C98.1687 125.264 97.9232 125.588 97.706 125.937C97.473 126.273 97.2624 126.627 97.0527 126.982C96.2274 128.424 95.4895 129.914 94.8431 131.444C94.161 132.969 93.5728 134.535 92.998 136.111C93.7299 132.816 94.8659 129.625 96.3803 126.609C96.7714 125.847 97.2192 125.115 97.7202 124.42C98.2171 123.733 98.7262 123.077 99.2058 122.4C100.215 121.131 100.977 119.685 101.454 118.136C101.665 117.356 101.807 116.559 101.877 115.754C101.955 114.934 101.953 114.132 102.028 113.254C102.204 111.566 102.509 109.894 102.941 108.253C103.768 104.995 104.805 101.794 106.046 98.6705Z" fill="black"/>
<path d="M120.466 110.87C121.55 111.711 122.577 112.608 123.621 113.443C123.885 113.646 124.148 113.846 124.406 114.022L124.835 114.278C124.993 114.378 125.144 114.483 125.287 114.592C125.84 115.038 126.349 115.536 126.807 116.079C127.716 117.155 128.431 118.381 128.92 119.702C129.432 121.01 129.576 122.433 129.338 123.817C129.194 122.487 128.814 121.194 128.216 119.998C127.633 118.819 126.907 117.715 126.055 116.713C125.644 116.21 125.19 115.745 124.697 115.322C124.577 115.216 124.454 115.119 124.331 115.028L123.904 114.732C123.623 114.514 123.357 114.278 123.107 114.026C122.131 113.057 121.247 112.001 120.466 110.87Z" fill="black"/>
<path d="M109.585 118.38C110.554 119.68 111.216 121.181 111.522 122.773C111.556 122.976 111.585 123.181 111.613 123.386C111.632 123.585 111.634 123.82 111.659 123.991C111.697 124.339 111.78 124.681 111.906 125.008C112.181 125.706 112.533 126.372 112.956 126.991C113.375 127.633 113.836 128.246 114.336 128.827C114.578 129.127 114.845 129.405 115.102 129.692C115.38 129.957 115.634 130.252 115.921 130.508C117.014 131.618 118.323 132.491 119.768 133.075C118.963 132.993 118.18 132.765 117.458 132.402C116.736 132.034 116.053 131.595 115.419 131.091C114.142 130.085 113.033 128.883 112.132 127.531C111.675 126.838 111.303 126.093 111.026 125.311C110.892 124.892 110.816 124.457 110.798 124.017C110.785 123.795 110.791 123.635 110.791 123.44L110.763 122.875C110.586 121.329 110.189 119.815 109.585 118.38Z" fill="black"/>
<path d="M120.466 131.024C120.564 130.389 120.784 129.779 121.114 129.228C121.437 128.671 121.83 128.157 122.283 127.698C122.741 127.248 123.249 126.852 123.798 126.517C124.071 126.351 124.352 126.201 124.641 126.066C124.937 125.945 125.232 125.827 125.533 125.728C125.01 126.091 124.494 126.439 124.005 126.819C123.517 127.193 123.053 127.597 122.614 128.029C122.182 128.464 121.783 128.931 121.42 129.425C121.05 129.925 120.73 130.461 120.466 131.024Z" fill="black"/>
<path d="M122.244 132.147C123.339 130.398 124.538 128.715 125.836 127.11C126.485 126.305 127.159 125.519 127.859 124.752C128.57 123.989 129.324 123.266 130.117 122.587C130.924 121.878 131.833 121.293 132.813 120.853C133.343 120.629 133.914 120.52 134.489 120.532C135.078 120.547 135.654 120.712 136.162 121.01C137.108 121.62 137.832 122.518 138.226 123.572C138.432 124.073 138.58 124.596 138.669 125.13C138.779 125.684 138.768 126.254 138.636 126.803L138.479 126.457C139.587 127.022 140.655 127.635 141.713 128.272C142.77 128.91 143.813 129.571 144.818 130.29C145.844 130.99 146.796 131.794 147.656 132.69C148.092 133.152 148.461 133.672 148.754 134.235C149.075 134.835 149.152 135.536 148.966 136.191L148.972 136.173C148.832 136.715 148.532 137.203 148.111 137.572C147.882 137.755 147.616 137.886 147.331 137.956C147.046 138.025 146.749 138.031 146.461 137.974C145.927 137.865 145.42 137.654 144.967 137.351C144.532 137.067 144.121 136.747 143.739 136.396L144.399 136.111C144.381 136.786 144.236 137.452 143.972 138.074C143.714 138.703 143.328 139.271 142.838 139.741C142.348 140.205 141.773 140.571 141.145 140.819C140.879 140.934 140.62 141.064 140.369 141.208C140.254 141.274 140.143 141.348 140.037 141.428C139.997 141.459 139.96 141.492 139.926 141.529C139.899 141.551 139.907 141.578 139.93 141.491L139.763 141.019C140.07 141.285 140.324 141.608 140.511 141.968C140.711 142.339 140.816 142.753 140.816 143.174C140.816 143.595 140.711 144.009 140.511 144.379C140.33 144.731 140.09 145.051 139.803 145.324C139.227 145.866 138.495 146.214 137.71 146.319C137.346 146.363 136.979 146.38 136.612 146.37C136.217 146.37 135.825 146.307 135.449 146.186L135.798 146.187C134.65 146.542 133.471 146.785 132.276 146.912C131.084 147.034 129.883 147.028 128.692 146.893C128.072 146.834 127.464 146.691 126.883 146.466C126.561 146.342 126.269 146.149 126.027 145.901C125.786 145.653 125.601 145.356 125.485 145.03C125.314 144.378 125.393 143.686 125.705 143.088C125.844 142.799 126.025 142.531 126.241 142.293C126.471 142.006 126.802 141.816 127.166 141.763L127.125 141.767C127.297 141.742 127.471 141.727 127.644 141.724C127.815 141.72 127.986 141.726 128.156 141.742C128.504 141.771 128.843 141.861 129.159 142.01L128.905 142.307C128.748 142.029 128.626 141.733 128.54 141.426C128.452 141.12 128.413 140.802 128.424 140.484C128.435 140.163 128.526 139.849 128.688 139.572C128.852 139.304 129.076 139.077 129.342 138.909C129.353 138.902 129.366 138.899 129.379 138.902C129.392 138.905 129.403 138.912 129.41 138.923C129.417 138.934 129.419 138.946 129.417 138.958C129.415 138.971 129.409 138.982 129.399 138.989C129.169 139.169 128.982 139.398 128.853 139.66C128.732 139.919 128.674 140.202 128.686 140.487C128.7 140.773 128.758 141.056 128.859 141.324C128.958 141.592 129.087 141.847 129.246 142.085C129.27 142.12 129.282 142.162 129.281 142.205C129.279 142.248 129.264 142.289 129.238 142.323C129.211 142.357 129.175 142.381 129.133 142.393C129.092 142.404 129.048 142.402 129.008 142.387L128.992 142.381C128.713 142.28 128.42 142.223 128.123 142.215C127.972 142.209 127.82 142.213 127.67 142.225C127.522 142.237 127.375 142.257 127.229 142.287L127.21 142.29L127.188 142.292C126.982 142.363 126.803 142.498 126.677 142.677C126.514 142.881 126.38 143.107 126.281 143.348C126.07 143.803 126.035 144.32 126.181 144.799C126.273 145.018 126.411 145.215 126.585 145.375C126.76 145.536 126.967 145.658 127.193 145.731C127.707 145.904 128.241 146.007 128.782 146.038C129.909 146.124 131.042 146.089 132.162 145.934C133.279 145.796 134.381 145.551 135.453 145.204C135.562 145.167 135.679 145.166 135.789 145.201L135.801 145.205C136.38 145.332 136.977 145.357 137.565 145.277C138.132 145.203 138.662 144.955 139.08 144.565C139.491 144.208 139.748 143.706 139.799 143.165C139.801 142.906 139.741 142.65 139.623 142.419C139.501 142.176 139.338 141.957 139.141 141.771L139.105 141.738C139.046 141.684 139.002 141.614 138.979 141.537C138.956 141.459 138.954 141.377 138.973 141.299C139.012 141.136 139.095 140.987 139.214 140.868C139.286 140.793 139.365 140.724 139.449 140.662C139.591 140.557 139.739 140.462 139.894 140.377C140.182 140.219 140.479 140.077 140.783 139.952C141.314 139.759 141.801 139.464 142.22 139.085C142.631 138.703 142.963 138.244 143.195 137.734C143.432 137.223 143.575 136.673 143.615 136.11L143.617 136.081C143.622 136.007 143.647 135.936 143.691 135.876C143.735 135.816 143.795 135.77 143.864 135.743C143.934 135.716 144.009 135.709 144.082 135.724C144.155 135.738 144.222 135.774 144.276 135.825C144.616 136.159 144.982 136.466 145.37 136.744C145.733 137.018 146.145 137.219 146.584 137.337C146.784 137.391 146.992 137.399 147.196 137.363C147.399 137.326 147.591 137.244 147.759 137.124C148.104 136.846 148.359 136.471 148.491 136.048L148.496 136.03C148.669 135.494 148.627 134.911 148.378 134.405C148.132 133.862 147.799 133.363 147.393 132.926C146.566 132.031 145.645 131.229 144.644 130.534C142.628 129.145 140.48 127.958 138.232 126.987C138.171 126.96 138.122 126.913 138.092 126.854C138.063 126.795 138.054 126.727 138.069 126.662L138.074 126.642C138.148 126.18 138.126 125.708 138.009 125.255C137.903 124.779 137.744 124.317 137.534 123.877C137.158 123.007 136.528 122.272 135.727 121.767C135.331 121.552 134.891 121.432 134.441 121.414C133.991 121.397 133.543 121.483 133.132 121.667C132.231 122.064 131.392 122.59 130.641 123.227C129.852 123.864 129.1 124.544 128.386 125.263C127.659 125.977 126.956 126.719 126.272 127.481C124.915 129.012 123.593 130.584 122.325 132.203C122.321 132.208 122.316 132.213 122.311 132.216C122.305 132.219 122.299 132.221 122.293 132.222C122.286 132.223 122.28 132.223 122.273 132.221C122.267 132.22 122.261 132.217 122.256 132.213C122.246 132.205 122.24 132.195 122.238 132.182C122.235 132.17 122.238 132.158 122.244 132.147Z" fill="black"/>
<path d="M132.141 124.642C132.146 125.554 132.262 126.462 132.486 127.346C132.603 127.764 132.788 128.16 133.034 128.517C133.267 128.853 133.617 129.089 134.016 129.179C134.428 129.278 134.857 129.273 135.266 129.165C135.69 129.067 136.093 128.89 136.452 128.643C137.198 128.125 137.844 127.474 138.355 126.722C137.993 127.597 137.415 128.365 136.675 128.956C136.294 129.273 135.847 129.501 135.366 129.622C134.885 129.744 134.383 129.755 133.897 129.657C133.389 129.533 132.947 129.223 132.657 128.789C132.392 128.376 132.208 127.918 132.114 127.437C131.946 126.512 131.955 125.564 132.141 124.642Z" fill="black"/>
<path d="M139.396 133.357C140.332 133.391 141.244 133.671 142.037 134.171C142.437 134.413 142.807 134.7 143.141 135.027C143.475 135.35 143.766 135.714 144.007 136.112C143.657 135.808 143.319 135.507 142.961 135.234C142.608 134.957 142.239 134.703 141.855 134.471C141.473 134.238 141.076 134.028 140.667 133.845C140.254 133.655 139.829 133.492 139.396 133.357Z" fill="black"/>
<path d="M129.075 142.196C129.292 142.416 129.543 142.6 129.817 142.742C130.084 142.897 130.355 143.042 130.629 143.184C131.177 143.465 131.733 143.735 132.292 144C133.406 144.541 134.535 145.058 135.625 145.696C134.4 145.411 133.211 144.991 132.078 144.444C131.508 144.173 130.959 143.862 130.433 143.513C129.881 143.19 129.415 142.738 129.075 142.196Z" fill="black"/>
<path d="M137.764 135.492C137.957 135.597 138.126 135.742 138.259 135.917C138.336 136.01 138.391 136.119 138.421 136.235C138.451 136.352 138.455 136.474 138.433 136.593C138.363 136.828 138.216 137.033 138.016 137.175C137.836 137.314 137.639 137.428 137.429 137.517C137.333 137.557 137.24 137.604 137.151 137.658C137.067 137.699 136.985 137.747 136.907 137.799L136.694 137.986C136.63 138.055 136.571 138.129 136.518 138.208C136.293 138.52 136.159 138.889 136.129 139.272C136.073 139.651 136.13 140.038 136.293 140.385C136.456 140.731 136.717 141.022 137.045 141.221C137.126 141.275 137.215 141.316 137.309 141.341C137.402 141.371 137.493 141.413 137.589 141.438C137.789 141.477 137.99 141.501 138.193 141.511C138.402 141.517 138.611 141.51 138.819 141.489C139.026 141.453 139.237 141.422 139.452 141.395C139.253 141.473 139.051 141.548 138.845 141.617C138.633 141.676 138.419 141.721 138.202 141.753C137.979 141.771 137.755 141.773 137.532 141.756C137.419 141.737 137.307 141.711 137.197 141.679C137.083 141.657 136.973 141.618 136.871 141.563C136.435 141.366 136.083 141.023 135.874 140.593C135.672 140.166 135.591 139.693 135.639 139.223C135.687 138.754 135.862 138.306 136.145 137.929C136.217 137.835 136.296 137.747 136.382 137.665L136.663 137.444C136.861 137.33 137.069 137.236 137.285 137.162C137.662 137.076 137.99 136.847 138.202 136.525C138.234 136.436 138.245 136.342 138.236 136.249C138.227 136.156 138.197 136.066 138.149 135.986C138.048 135.801 137.918 135.635 137.764 135.492Z" fill="black"/>
<path d="M133.771 126.048C133.829 126.306 133.908 126.56 134.008 126.806C134.091 127.039 134.238 127.244 134.433 127.397C134.531 127.466 134.642 127.514 134.759 127.536C134.877 127.558 134.997 127.554 135.113 127.526C135.24 127.502 135.365 127.47 135.488 127.429C135.611 127.382 135.733 127.327 135.864 127.284C135.761 127.372 135.648 127.449 135.537 127.533C135.414 127.599 135.286 127.655 135.153 127.701C135.011 127.749 134.86 127.764 134.712 127.744C134.563 127.725 134.421 127.671 134.297 127.587C134.07 127.402 133.91 127.149 133.839 126.865C133.764 126.599 133.741 126.322 133.771 126.048Z" fill="black"/>
<path d="M134.221 125.728C134.486 125.654 134.76 125.617 135.035 125.619C135.315 125.621 135.593 125.665 135.859 125.751C136.137 125.842 136.379 126.017 136.552 126.253C136.701 126.497 136.753 126.789 136.696 127.07C136.664 126.812 136.565 126.567 136.408 126.361C136.239 126.175 136.022 126.041 135.781 125.971C135.275 125.818 134.75 125.737 134.221 125.728Z" fill="black"/>
<path d="M137.99 140.551C138.087 140.351 138.236 140.18 138.42 140.056C138.519 139.988 138.63 139.941 138.747 139.916C138.864 139.892 138.985 139.892 139.103 139.915C139.327 139.987 139.524 140.126 139.666 140.313C139.725 140.409 139.786 140.501 139.836 140.597C139.874 140.701 139.918 140.799 139.947 140.903C139.803 140.739 139.675 140.576 139.531 140.433C139.398 140.297 139.231 140.197 139.048 140.143C138.866 140.1 138.674 140.125 138.508 140.213C138.322 140.303 138.147 140.417 137.99 140.551Z" fill="black"/>
<path d="M129.338 141.643C129.351 141.257 129.449 140.879 129.626 140.536C129.673 140.44 129.739 140.354 129.82 140.284C129.901 140.214 129.996 140.162 130.098 140.13C130.206 140.109 130.317 140.113 130.423 140.141C130.529 140.169 130.628 140.221 130.711 140.293C130.873 140.415 131.011 140.567 131.117 140.74C131.226 140.924 131.263 141.141 131.22 141.35C131.162 141.539 131.063 141.712 130.931 141.858C130.798 142.004 130.635 142.119 130.453 142.196C130.748 141.983 130.956 141.672 131.043 141.319C131.058 141.155 131.02 140.99 130.934 140.849C130.837 140.706 130.715 140.581 130.573 140.482C130.518 140.427 130.45 140.385 130.376 140.36C130.302 140.335 130.224 140.327 130.146 140.337C129.992 140.388 129.862 140.493 129.778 140.631C129.584 140.946 129.436 141.287 129.338 141.643Z" fill="black"/>
<path d="M123.327 138.79C123.304 139.175 123.195 139.55 123.01 139.888C122.96 139.983 122.892 140.067 122.809 140.135C122.726 140.203 122.63 140.253 122.527 140.282C122.419 140.3 122.308 140.293 122.202 140.262C122.097 140.231 122 140.177 121.918 140.103C121.759 139.977 121.626 139.821 121.524 139.645C121.42 139.459 121.389 139.241 121.437 139.033C121.5 138.846 121.604 138.675 121.74 138.533C121.876 138.39 122.042 138.279 122.226 138.208C121.926 138.413 121.709 138.718 121.614 139.068C121.594 139.232 121.628 139.398 121.71 139.542C121.804 139.687 121.923 139.815 122.061 139.918C122.115 139.974 122.182 140.017 122.255 140.044C122.328 140.071 122.407 140.081 122.484 140.074C122.639 140.027 122.773 139.926 122.86 139.789C123.062 139.479 123.219 139.143 123.327 138.79Z" fill="black"/>
<path d="M126.854 145.161C126.955 144.895 127.096 144.646 127.273 144.424C127.364 144.306 127.472 144.203 127.595 144.119C127.665 144.066 127.747 144.032 127.834 144.018C127.921 144.005 128.009 144.013 128.092 144.041C128.239 144.125 128.35 144.26 128.402 144.42C128.455 144.558 128.488 144.702 128.501 144.848C128.536 145.13 128.523 145.417 128.464 145.695C128.433 145.421 128.387 145.149 128.324 144.88C128.294 144.752 128.254 144.626 128.206 144.504C128.15 144.397 128.083 144.28 127.998 144.255C127.838 144.168 127.589 144.365 127.406 144.545C127.212 144.741 127.028 144.946 126.854 145.161Z" fill="black"/>
<path d="M120.463 132.176L118.472 134.368C118.472 134.368 118.487 137.171 117.067 137.289C117.067 137.289 116.348 137.94 116.86 138.073C117.319 138.186 118.97 137.777 119.684 137.861C119.684 137.861 123.07 137.191 123.646 137.555C123.82 137.673 123.966 137.827 124.074 138.006C124.182 138.186 124.25 138.386 124.272 138.595L124.548 138.565L135.227 139.201L139.86 132.176L120.463 132.176ZM134.222 137.092L119.236 136.841L121.192 133.693H136.208L134.222 137.092Z" fill="black"/>
<path d="M108.183 137.291C108.76 136.87 109.413 136.564 110.106 136.39C110.811 136.209 111.54 136.146 112.266 136.204C112.331 136.209 112.391 136.24 112.433 136.289C112.476 136.339 112.497 136.403 112.492 136.468C112.487 136.533 112.457 136.594 112.407 136.636C112.358 136.679 112.294 136.7 112.228 136.696C112.218 136.695 112.208 136.693 112.198 136.691C111.525 136.559 110.835 136.538 110.155 136.631C109.461 136.723 108.792 136.946 108.183 137.291Z" fill="black"/>
<path d="M112.232 142.379C113.618 142.405 115.005 142.453 116.392 142.585C116.735 142.615 117.093 142.671 117.425 142.71C117.76 142.746 118.097 142.753 118.433 142.73C119.098 142.685 119.751 142.528 120.365 142.267L120.381 142.259C120.441 142.233 120.508 142.231 120.569 142.255C120.63 142.279 120.679 142.326 120.706 142.385C120.732 142.445 120.734 142.513 120.71 142.574C120.687 142.635 120.64 142.684 120.58 142.71L120.566 142.716C119.887 142.964 119.17 143.093 118.447 143.099C118.09 143.102 117.734 143.074 117.382 143.015C117.028 142.952 116.705 142.881 116.36 142.829C114.996 142.617 113.613 142.486 112.232 142.379Z" fill="black"/>
<path d="M113.301 146.202C113.771 146.032 114.246 145.875 114.726 145.728C115.212 145.575 115.707 145.454 116.208 145.366C116.273 145.355 116.339 145.371 116.392 145.409C116.445 145.448 116.481 145.506 116.492 145.57C116.502 145.635 116.486 145.701 116.448 145.755C116.41 145.808 116.352 145.843 116.287 145.854C116.274 145.856 116.261 145.857 116.247 145.857H116.243C115.752 145.863 115.263 145.9 114.778 145.969C114.285 146.033 113.792 146.112 113.301 146.202Z" fill="black"/>
<path d="M115.156 133.755C115.408 134.017 115.705 134.232 116.032 134.39C116.363 134.543 116.711 134.658 117.068 134.733C116.879 134.777 116.684 134.787 116.492 134.763C116.297 134.737 116.107 134.682 115.929 134.6C115.753 134.51 115.594 134.392 115.455 134.251C115.317 134.112 115.215 133.942 115.156 133.755Z" fill="black"/>
<path d="M122.678 142.466C122.547 142.466 122.422 142.415 122.329 142.323C122.236 142.231 122.183 142.106 122.183 141.975C122.182 141.845 122.234 141.719 122.326 141.626C122.418 141.534 122.543 141.481 122.673 141.48L128.916 141.422C128.981 141.42 129.046 141.431 129.106 141.455C129.167 141.478 129.222 141.514 129.269 141.56C129.315 141.605 129.352 141.66 129.377 141.72C129.402 141.78 129.414 141.845 129.413 141.91C129.414 141.974 129.402 142.038 129.378 142.099C129.353 142.159 129.318 142.213 129.272 142.259C129.227 142.306 129.173 142.342 129.113 142.368C129.054 142.393 128.99 142.406 128.925 142.407L122.683 142.466H122.678Z" fill="black"/>
<path d="M139.832 142.306C139.702 142.306 139.576 142.255 139.484 142.162C139.391 142.07 139.339 141.945 139.339 141.814C139.339 141.683 139.391 141.558 139.483 141.466C139.576 141.373 139.701 141.321 139.832 141.321L157.039 141.298H157.04C157.171 141.298 157.296 141.35 157.388 141.442C157.481 141.535 157.533 141.66 157.533 141.791C157.533 141.921 157.481 142.047 157.389 142.139C157.297 142.232 157.171 142.284 157.041 142.284L139.833 142.306H139.832Z" fill="black"/>
<path d="M254.069 142.154C253.939 142.154 253.813 142.103 253.721 142.01C253.628 141.918 253.576 141.793 253.576 141.662C253.576 141.531 253.628 141.406 253.72 141.314C253.813 141.221 253.938 141.169 254.069 141.169L269.885 141.15H269.886C270.016 141.15 270.142 141.202 270.234 141.294C270.327 141.386 270.379 141.512 270.379 141.642C270.379 141.773 270.327 141.898 270.235 141.991C270.142 142.083 270.017 142.135 269.886 142.135L254.07 142.154H254.069Z" fill="black"/>
<path d="M163.987 141.9H162.817C162.786 141.9 162.756 141.888 162.734 141.866C162.712 141.844 162.699 141.814 162.698 141.783C162.698 141.768 162.701 141.752 162.707 141.738C162.712 141.724 162.721 141.711 162.731 141.7C162.742 141.69 162.755 141.681 162.769 141.675C162.783 141.669 162.798 141.666 162.814 141.666H163.987C164.003 141.666 164.018 141.669 164.032 141.675C164.047 141.681 164.06 141.689 164.07 141.7C164.081 141.711 164.09 141.724 164.096 141.738C164.102 141.752 164.105 141.767 164.105 141.783C164.105 141.798 164.102 141.814 164.096 141.828C164.09 141.842 164.081 141.855 164.07 141.866C164.06 141.877 164.047 141.885 164.032 141.891C164.018 141.897 164.003 141.9 163.987 141.9Z" fill="black"/>
<path d="M12.0691 143.497C11.9384 143.498 11.8128 143.447 11.7199 143.355C11.6271 143.263 11.5746 143.138 11.574 143.007C11.5734 142.876 11.6247 142.751 11.7167 142.658C11.8087 142.565 11.9338 142.513 12.0645 142.512L33.7612 142.311C33.8908 142.313 34.0146 142.365 34.1072 142.455C34.1997 142.546 34.2539 142.669 34.2586 142.798C34.2592 142.863 34.2471 142.927 34.2229 142.987C34.1987 143.047 34.1629 143.102 34.1176 143.148C34.0722 143.194 34.0182 143.231 33.9587 143.256C33.8991 143.282 33.8351 143.295 33.7704 143.296L12.0736 143.497H12.0691Z" fill="black"/>
<path d="M93.8974 75.3121C94.0797 75.3058 94.2523 75.229 94.379 75.0979C94.5057 74.9668 94.5765 74.7917 94.5765 74.6094C94.5765 74.4271 94.5057 74.252 94.379 74.1209C94.2523 73.9898 94.0797 73.913 93.8974 73.9067C93.7152 73.913 93.5425 73.9898 93.4158 74.1209C93.2891 74.252 93.2183 74.4271 93.2183 74.6094C93.2183 74.7917 93.2891 74.9668 93.4158 75.0979C93.5425 75.229 93.7152 75.3058 93.8974 75.3121Z" fill="black"/>
<path d="M129.435 61.6825L123.68 61.8968C121.792 61.954 119.925 61.9997 118.068 62.0344C116.215 62.0601 114.367 62.0894 112.528 62.0688C110.687 62.0549 108.846 61.9727 106.987 61.9213L107.261 61.6477C107.231 62.7093 107.183 63.771 107.169 64.8325C107.143 65.8941 107.142 66.9556 107.136 68.0173C107.134 70.1404 107.179 72.2637 107.239 74.3868L106.987 74.1355L111.58 74.008C111.627 74.0066 111.673 74.0146 111.717 74.0314C111.761 74.0482 111.801 74.0736 111.834 74.106L111.848 74.119L113.602 75.8052H112.999L114.695 74.0611C114.736 74.019 114.785 73.9854 114.839 73.9622C114.893 73.9391 114.951 73.9269 115.009 73.9263L115.021 73.9262C117.429 73.9064 119.837 73.8569 122.245 73.8614C123.449 73.8554 124.654 73.8603 125.858 73.8762L129.47 73.9219L129.005 74.3868C129.038 72.3177 129.097 70.2482 129.183 68.136L129.435 61.6825ZM129.505 61.6129L129.757 67.8985C129.842 70.0327 129.902 72.2096 129.935 74.3868C129.937 74.5083 129.89 74.6255 129.806 74.7127C129.721 74.7999 129.605 74.8499 129.484 74.8518H129.483L129.47 74.8519L125.858 74.8976C124.654 74.912 123.449 74.9169 122.245 74.9124C119.837 74.9168 117.429 74.8674 115.021 74.8475L115.347 74.7127L113.602 76.4081L113.592 76.4181C113.552 76.4563 113.506 76.4865 113.455 76.5067C113.404 76.527 113.349 76.5371 113.294 76.5363C113.24 76.5355 113.185 76.5239 113.135 76.5022C113.084 76.4805 113.039 76.449 113 76.4096L112.999 76.4081L111.312 74.6549L111.58 74.7658L106.987 74.6383L106.973 74.6379C106.908 74.6361 106.847 74.6087 106.802 74.5616C106.758 74.5145 106.734 74.4517 106.736 74.3869V74.3868C106.796 72.2637 106.84 70.1405 106.839 68.0173C106.833 66.9557 106.832 65.8941 106.806 64.8325C106.791 63.771 106.743 62.7093 106.713 61.6477C106.713 61.6128 106.718 61.5781 106.731 61.5454C106.743 61.5128 106.762 61.483 106.786 61.4576C106.81 61.4322 106.839 61.4118 106.871 61.3976C106.903 61.3833 106.937 61.3755 106.972 61.3745H106.972L106.987 61.3741C108.875 61.3228 110.782 61.2404 112.688 61.2267C114.596 61.206 116.495 61.2353 118.389 61.2611C120.279 61.2956 122.159 61.3414 124.018 61.3987L129.505 61.6129Z" fill="black"/>
<path d="M195.554 38.1182L187.084 38.2647L178.685 38.3705L162.004 38.4876L153.705 38.4584L145.411 38.3535C139.877 38.2686 134.314 38.2281 128.754 38.2421L128.913 38.0834L128.942 44.4529L129.016 50.8225L128.754 50.5611C133.654 50.4943 138.554 50.4312 143.454 50.3973L158.155 50.3162C163.055 50.2783 167.955 50.3219 172.855 50.3208C177.755 50.3148 182.655 50.3791 187.555 50.4183L187.562 50.4184C187.667 50.4194 187.767 50.4619 187.841 50.5368L189.546 52.2718H189.005L190.745 50.5713L190.751 50.5649C190.784 50.5333 190.822 50.5084 190.864 50.4916C190.906 50.4749 190.951 50.4665 190.996 50.4671L195.589 50.5339L195.3 50.8225C195.334 48.732 195.361 46.6416 195.419 44.5232L195.554 38.1182ZM195.624 38.0486L195.759 44.3826C195.817 46.5106 195.844 48.6666 195.878 50.8225C195.879 50.8979 195.85 50.9706 195.797 51.0247C195.745 51.0788 195.673 51.1098 195.598 51.111H195.597L195.589 51.1111L190.996 51.1779L191.247 51.0739L189.546 52.8127C189.476 52.8844 189.38 52.9253 189.28 52.9265C189.179 52.9276 189.083 52.8888 189.011 52.8186L189.01 52.818L189.005 52.8128L187.269 51.1084L187.555 51.2267C182.655 51.2659 177.755 51.3303 172.855 51.3242C167.955 51.3232 163.055 51.3667 158.155 51.3288L143.454 51.2477C138.554 51.2138 133.654 51.1507 128.754 51.084H128.748C128.714 51.0835 128.68 51.0765 128.649 51.0631C128.618 51.0497 128.589 51.0303 128.566 51.0061C128.542 50.9818 128.523 50.9531 128.511 50.9216C128.498 50.8901 128.492 50.8564 128.492 50.8225L128.566 44.4529L128.595 38.0834C128.595 38.0413 128.612 38.001 128.642 37.9712C128.672 37.9414 128.712 37.9246 128.754 37.9246C134.333 37.9386 139.91 37.8981 145.514 37.8132L153.929 37.7083L162.339 37.679L179.075 37.7962L187.385 37.9019L195.624 38.0486Z" fill="black"/>
<path d="M149.147 10.9333C145.534 11.0361 141.982 11.1077 138.449 11.1692C134.91 11.2427 131.413 11.2756 127.917 11.3025C124.423 11.3299 120.952 11.308 117.473 11.2302C113.992 11.1707 110.496 11.0736 106.988 11.0562L107.145 10.8985C107.144 11.9601 107.129 13.0216 107.141 14.0832L107.16 17.268C107.163 19.3912 107.214 21.5144 107.246 23.6376L106.988 23.3798L111.58 23.2938C111.623 23.2929 111.666 23.3006 111.706 23.3163C111.747 23.3321 111.783 23.3556 111.814 23.3855L111.824 23.3946L113.572 25.0867H113.03L114.729 23.3454C114.766 23.3076 114.81 23.2774 114.858 23.2567C114.907 23.2359 114.959 23.2249 115.011 23.2244L115.021 23.2243L123.562 23.1501C126.408 23.1275 129.255 23.1067 132.102 23.1111C137.795 23.1085 143.489 23.1917 149.182 23.2674L148.812 23.6376L148.963 17.3587L149.147 10.9333ZM149.217 10.8637L149.401 17.1773L149.553 23.6376C149.555 23.7335 149.519 23.8263 149.453 23.8957C149.386 23.9651 149.295 24.0053 149.199 24.0076L149.196 24.0077L149.182 24.0078C143.489 24.0836 137.795 24.1668 132.102 24.1641C129.255 24.1687 126.408 24.1478 123.562 24.1253L115.021 24.051L115.314 23.93L113.572 25.628L113.564 25.6355C113.492 25.7053 113.396 25.7438 113.296 25.7425C113.196 25.7413 113.101 25.7004 113.031 25.6289L113.03 25.628L111.337 23.8808L111.58 23.9814L106.988 23.8955L106.979 23.8953C106.946 23.8948 106.913 23.8878 106.882 23.8745C106.852 23.8613 106.824 23.8421 106.801 23.8182C106.778 23.7943 106.759 23.766 106.747 23.735C106.735 23.704 106.729 23.6709 106.73 23.6376C106.761 21.5144 106.812 19.3913 106.815 17.268L106.834 14.0832C106.846 13.0217 106.831 11.9601 106.83 10.8985C106.83 10.8567 106.846 10.8165 106.876 10.7869C106.906 10.7573 106.946 10.7407 106.988 10.7406C110.512 10.7232 114.048 10.6261 117.6 10.5667C121.153 10.4888 124.715 10.467 128.252 10.4943C131.789 10.5214 135.324 10.5542 138.818 10.6277C142.318 10.6892 145.799 10.7608 149.217 10.8637V10.8637Z" fill="black"/>
</svg>
